G04 #@! TF.GenerationSoftware,KiCad,Pcbnew,5.1.2-f72e74a~84~ubuntu18.04.1*
G04 #@! TF.CreationDate,2019-07-17T16:29:59+09:00*
G04 #@! TF.ProjectId,OreoMotorController,4f72656f-4d6f-4746-9f72-436f6e74726f,rev?*
G04 #@! TF.SameCoordinates,Original*
G04 #@! TF.FileFunction,Copper,L1,Top*
G04 #@! TF.FilePolarity,Positive*
%FSLAX46Y46*%
G04 Gerber Fmt 4.6, Leading zero omitted, Abs format (unit mm)*
G04 Created by KiCad (PCBNEW 5.1.2-f72e74a~84~ubuntu18.04.1) date 2019-07-17 16:29:59*
%MOMM*%
%LPD*%
G04 APERTURE LIST*
%ADD10C,1.600000*%
%ADD11R,1.600000X1.600000*%
%ADD12O,1.600000X1.600000*%
%ADD13R,1.800000X1.800000*%
%ADD14C,1.800000*%
%ADD15R,2.600000X2.600000*%
%ADD16O,2.600000X2.600000*%
%ADD17R,1.700000X1.700000*%
%ADD18O,1.700000X1.700000*%
%ADD19C,2.000000*%
%ADD20O,2.400000X2.400000*%
%ADD21C,2.400000*%
%ADD22R,1.275000X1.800000*%
%ADD23O,1.275000X1.800000*%
%ADD24C,0.800000*%
%ADD25C,0.250000*%
%ADD26C,0.254000*%
G04 APERTURE END LIST*
D10*
X120500000Y-135000000D03*
D11*
X117000000Y-135000000D03*
X98000000Y-163500000D03*
D12*
X82760000Y-130480000D03*
X98000000Y-160960000D03*
X82760000Y-133020000D03*
X98000000Y-158420000D03*
X82760000Y-135560000D03*
X98000000Y-155880000D03*
X82760000Y-138100000D03*
X98000000Y-153340000D03*
X82760000Y-140640000D03*
X98000000Y-150800000D03*
X82760000Y-143180000D03*
X98000000Y-148260000D03*
X82760000Y-145720000D03*
X98000000Y-145720000D03*
X82760000Y-148260000D03*
X98000000Y-143180000D03*
X82760000Y-150800000D03*
X98000000Y-140640000D03*
X82760000Y-153340000D03*
X98000000Y-138100000D03*
X82760000Y-155880000D03*
X98000000Y-135560000D03*
X82760000Y-158420000D03*
X98000000Y-133020000D03*
X82760000Y-160960000D03*
X98000000Y-130480000D03*
X82760000Y-163500000D03*
X98000000Y-127940000D03*
X82760000Y-127940000D03*
D11*
X117000000Y-145000000D03*
D10*
X120500000Y-145000000D03*
D13*
X102500000Y-158000000D03*
D14*
X105040000Y-158000000D03*
D15*
X127500000Y-136500000D03*
D16*
X142740000Y-136500000D03*
D14*
X131500000Y-128500000D03*
D13*
X128960000Y-128500000D03*
D17*
X116000000Y-167500000D03*
D18*
X113460000Y-167500000D03*
X110920000Y-167500000D03*
X108380000Y-167500000D03*
X105840000Y-167500000D03*
X103300000Y-167500000D03*
D17*
X110500000Y-152000000D03*
D18*
X110500000Y-154540000D03*
X110500000Y-157080000D03*
X110500000Y-159620000D03*
D17*
X140000000Y-122500000D03*
D18*
X142540000Y-122500000D03*
X131920000Y-167500000D03*
X134460000Y-167500000D03*
D17*
X137000000Y-167500000D03*
X126000000Y-167500000D03*
D18*
X123460000Y-167500000D03*
X120920000Y-167500000D03*
D17*
X117000000Y-158000000D03*
D18*
X117000000Y-155460000D03*
D17*
X152000000Y-145000000D03*
D18*
X152000000Y-147540000D03*
X152000000Y-150080000D03*
D17*
X152000000Y-156035001D03*
D18*
X152000000Y-158575001D03*
X152000000Y-161115001D03*
X152000000Y-163655001D03*
X152000000Y-166195001D03*
X152000000Y-121920000D03*
X152000000Y-124460000D03*
D17*
X152000000Y-127000000D03*
X152000000Y-138000000D03*
D18*
X152000000Y-135460000D03*
X152000000Y-132920000D03*
D19*
X119000000Y-123000000D03*
X119000000Y-128080000D03*
D20*
X142740000Y-142000000D03*
D21*
X127500000Y-142000000D03*
X127500000Y-147000000D03*
D20*
X142740000Y-147000000D03*
D18*
X133580000Y-122500000D03*
X131040000Y-122500000D03*
D17*
X128500000Y-122500000D03*
D11*
X126000000Y-162000000D03*
D12*
X143780000Y-151840000D03*
X128540000Y-162000000D03*
X141240000Y-151840000D03*
X131080000Y-162000000D03*
X138700000Y-151840000D03*
X133620000Y-162000000D03*
X136160000Y-151840000D03*
X136160000Y-162000000D03*
X133620000Y-151840000D03*
X138700000Y-162000000D03*
X131080000Y-151840000D03*
X141240000Y-162000000D03*
X128540000Y-151840000D03*
X143780000Y-162000000D03*
X126000000Y-151840000D03*
D22*
X104000000Y-142000000D03*
D23*
X105700000Y-142000000D03*
X107400000Y-142000000D03*
X109100000Y-142000000D03*
X110800000Y-142000000D03*
D24*
X90500000Y-165500000D03*
X85500000Y-160000000D03*
X94500000Y-156500000D03*
X127500000Y-156500000D03*
X126000000Y-155500000D03*
X107032653Y-157032653D03*
X106500000Y-154500000D03*
X108548093Y-151275000D03*
X95739847Y-160239847D03*
X92000000Y-163500000D03*
X124000000Y-169375000D03*
X129000000Y-167500000D03*
X105500000Y-152000000D03*
X120500000Y-155500000D03*
X123000000Y-158000000D03*
X125000000Y-159000000D03*
X101000000Y-143000000D03*
X115000000Y-141000000D03*
X124500000Y-139000000D03*
X124000000Y-137400001D03*
X133500000Y-141000000D03*
X137500000Y-123500000D03*
X106000000Y-146000000D03*
X100500000Y-145500000D03*
X87000000Y-131000000D03*
X89500000Y-130500000D03*
X122217347Y-162217347D03*
X121000000Y-160000000D03*
X119500000Y-152000000D03*
X103000000Y-148000000D03*
X99937347Y-141062653D03*
X101000000Y-140000000D03*
X122000000Y-131000000D03*
X118000000Y-132000000D03*
X113500000Y-132295000D03*
X113500000Y-135799989D03*
D25*
X92920000Y-160960000D02*
X98000000Y-155880000D01*
X82760000Y-160960000D02*
X92920000Y-160960000D01*
X107400000Y-142262500D02*
X107400000Y-142000000D01*
X105357499Y-144305001D02*
X107400000Y-142262500D01*
X83300001Y-136974999D02*
X90630003Y-144305001D01*
X82219999Y-136974999D02*
X83300001Y-136974999D01*
X81634999Y-137559999D02*
X82219999Y-136974999D01*
X90630003Y-144305001D02*
X105357499Y-144305001D01*
X81634999Y-138640001D02*
X81634999Y-137559999D01*
X82219999Y-139225001D02*
X81634999Y-138640001D01*
X83248591Y-139225001D02*
X82219999Y-139225001D01*
X91318600Y-147295010D02*
X83248591Y-139225001D01*
X91318600Y-149198600D02*
X91318600Y-147295010D01*
X98000000Y-155880000D02*
X91318600Y-149198600D01*
X109837490Y-143225010D02*
X110800000Y-142262500D01*
X108701316Y-143225010D02*
X109837490Y-143225010D01*
X107476306Y-142000000D02*
X108701316Y-143225010D01*
X110800000Y-142262500D02*
X110800000Y-142000000D01*
X107400000Y-142000000D02*
X107476306Y-142000000D01*
X119700001Y-144200001D02*
X120500000Y-145000000D01*
X114725001Y-139225001D02*
X119700001Y-144200001D01*
X85788591Y-139225001D02*
X114725001Y-139225001D01*
X118975011Y-136524989D02*
X100629991Y-136524989D01*
X120500000Y-135000000D02*
X118975011Y-136524989D01*
X125500000Y-145000000D02*
X120500000Y-145000000D01*
X127500000Y-147000000D02*
X125500000Y-145000000D01*
X144265001Y-138025001D02*
X144039999Y-137799999D01*
X144265001Y-147732001D02*
X144265001Y-138025001D01*
X136282003Y-148525001D02*
X143472001Y-148525001D01*
X124281991Y-136524989D02*
X136282003Y-148525001D01*
X144039999Y-137799999D02*
X142740000Y-136500000D01*
X98540001Y-134434999D02*
X100629991Y-136524989D01*
X82219999Y-134434999D02*
X98540001Y-134434999D01*
X81634999Y-135019999D02*
X82219999Y-134434999D01*
X81634999Y-136100001D02*
X81634999Y-135019999D01*
X82219999Y-136685001D02*
X81634999Y-136100001D01*
X83248591Y-136685001D02*
X82219999Y-136685001D01*
X85788591Y-139225001D02*
X83248591Y-136685001D01*
X119725001Y-139225001D02*
X85788591Y-139225001D01*
X143472001Y-148525001D02*
X144265001Y-147732001D01*
X100629991Y-136524989D02*
X124281991Y-136524989D01*
X127500000Y-147000000D02*
X119725001Y-139225001D01*
X150500000Y-136500000D02*
X152000000Y-138000000D01*
X142740000Y-136500000D02*
X150500000Y-136500000D01*
X152000000Y-128100000D02*
X152000000Y-127000000D01*
X150824999Y-129275001D02*
X152000000Y-128100000D01*
X150824999Y-137924999D02*
X150824999Y-129275001D01*
X150900000Y-138000000D02*
X150824999Y-137924999D01*
X152000000Y-138000000D02*
X150900000Y-138000000D01*
X150824999Y-140275001D02*
X150824999Y-146364999D01*
X152000000Y-139100000D02*
X150824999Y-140275001D01*
X151150001Y-146690001D02*
X152000000Y-147540000D01*
X150824999Y-146364999D02*
X151150001Y-146690001D01*
X152000000Y-138000000D02*
X152000000Y-139100000D01*
X152000000Y-154935001D02*
X152000000Y-156035001D01*
X153175001Y-153760000D02*
X152000000Y-154935001D01*
X153175001Y-148715001D02*
X153175001Y-153760000D01*
X152000000Y-147540000D02*
X153175001Y-148715001D01*
X144579999Y-162799999D02*
X143780000Y-162000000D01*
X146610002Y-164830002D02*
X144579999Y-162799999D01*
X152564001Y-164830002D02*
X146610002Y-164830002D01*
X153175001Y-164219002D02*
X152564001Y-164830002D01*
X153175001Y-156110002D02*
X153175001Y-164219002D01*
X153100000Y-156035001D02*
X153175001Y-156110002D01*
X152000000Y-156035001D02*
X153100000Y-156035001D01*
X147975001Y-166195001D02*
X152000000Y-166195001D01*
X143780000Y-162000000D02*
X147975001Y-166195001D01*
X122570997Y-166650001D02*
X122895999Y-166324999D01*
X120920000Y-167500000D02*
X121769999Y-166650001D01*
X121769999Y-166650001D02*
X122570997Y-166650001D01*
X147500000Y-122500000D02*
X152000000Y-127000000D01*
X142540000Y-122500000D02*
X147500000Y-122500000D01*
X129324999Y-166324999D02*
X128675001Y-166324999D01*
X135904999Y-166324999D02*
X128675001Y-166324999D01*
X122895999Y-166324999D02*
X123175001Y-166324999D01*
X123175001Y-166324999D02*
X125000000Y-164500000D01*
X126000000Y-164500000D02*
X127824999Y-166324999D01*
X125000000Y-164500000D02*
X126000000Y-164500000D01*
X137729998Y-164500000D02*
X135904999Y-166324999D01*
X141280000Y-164500000D02*
X137729998Y-164500000D01*
X143780000Y-162000000D02*
X141280000Y-164500000D01*
X127824999Y-166324999D02*
X128675001Y-166324999D01*
X129324999Y-166324999D02*
X130500000Y-167500000D01*
X130500000Y-167500000D02*
X131920000Y-167500000D01*
X117000000Y-123038998D02*
X117000000Y-133950000D01*
X118363999Y-121674999D02*
X117000000Y-123038998D01*
X132404999Y-123675001D02*
X121636003Y-123675001D01*
X117000000Y-133950000D02*
X117000000Y-135000000D01*
X119636001Y-121674999D02*
X118363999Y-121674999D01*
X121636003Y-123675001D02*
X119636001Y-121674999D01*
X133580000Y-122500000D02*
X132404999Y-123675001D01*
X108960000Y-163500000D02*
X98000000Y-163500000D01*
X117000000Y-155460000D02*
X108960000Y-163500000D01*
X119732001Y-136974999D02*
X132837002Y-150080000D01*
X150797919Y-150080000D02*
X152000000Y-150080000D01*
X132837002Y-150080000D02*
X150797919Y-150080000D01*
X84174999Y-136974999D02*
X119732001Y-136974999D01*
X82760000Y-135560000D02*
X84174999Y-136974999D01*
X150824999Y-162480000D02*
X151150001Y-162805002D01*
X150824999Y-157145002D02*
X150824999Y-162480000D01*
X144394996Y-150714999D02*
X150824999Y-157145002D01*
X151150001Y-162805002D02*
X152000000Y-163655001D01*
X128957997Y-150714999D02*
X144394996Y-150714999D01*
X125087999Y-146845001D02*
X128957997Y-150714999D01*
X91505001Y-146845001D02*
X125087999Y-146845001D01*
X82760000Y-138100000D02*
X91505001Y-146845001D01*
X94125011Y-169125011D02*
X90500000Y-165500000D01*
X116971399Y-169125011D02*
X94125011Y-169125011D01*
X122971409Y-163125001D02*
X116971399Y-169125011D01*
X133620000Y-162000000D02*
X132494999Y-163125001D01*
X132494999Y-163125001D02*
X122971409Y-163125001D01*
X85500000Y-160000000D02*
X91000000Y-160000000D01*
X91000000Y-160000000D02*
X94500000Y-156500000D01*
X127500000Y-156500000D02*
X127000000Y-156500000D01*
X127000000Y-156500000D02*
X126000000Y-155500000D01*
X107032653Y-157032653D02*
X106500000Y-156500000D01*
X106500000Y-156500000D02*
X106500000Y-154500000D01*
X98475000Y-151275000D02*
X98000000Y-150800000D01*
X108548093Y-151275000D02*
X98475000Y-151275000D01*
X95739847Y-160239847D02*
X92479694Y-163500000D01*
X92479694Y-163500000D02*
X92000000Y-163500000D01*
X124000000Y-169375000D02*
X127125000Y-169375000D01*
X127125000Y-169375000D02*
X129000000Y-167500000D01*
X118364999Y-153364999D02*
X120500000Y-155500000D01*
X108713999Y-153364999D02*
X118364999Y-153364999D01*
X105500000Y-152000000D02*
X107349000Y-152000000D01*
X107349000Y-152000000D02*
X108713999Y-153364999D01*
X123000000Y-158000000D02*
X124000000Y-158000000D01*
X124000000Y-158000000D02*
X125000000Y-159000000D01*
X114774990Y-140774990D02*
X115000000Y-141000000D01*
X101000000Y-143000000D02*
X103225010Y-140774990D01*
X103225010Y-140774990D02*
X114774990Y-140774990D01*
X124500000Y-139000000D02*
X124500000Y-137900001D01*
X124500000Y-137900001D02*
X124000000Y-137400001D01*
X133500000Y-136863590D02*
X127734999Y-131098589D01*
X133500000Y-141000000D02*
X133500000Y-136863590D01*
X127734999Y-131098589D02*
X127734999Y-127339999D01*
X127734999Y-127339999D02*
X130949987Y-124125011D01*
X130949987Y-124125011D02*
X136874989Y-124125011D01*
X136874989Y-124125011D02*
X137500000Y-123500000D01*
X106000000Y-146000000D02*
X105500000Y-145500000D01*
X105500000Y-145500000D02*
X100500000Y-145500000D01*
X87000000Y-131000000D02*
X89000000Y-131000000D01*
X89000000Y-131000000D02*
X89500000Y-130500000D01*
X122217347Y-162217347D02*
X122217347Y-161217347D01*
X122217347Y-161217347D02*
X121000000Y-160000000D01*
X108785002Y-148000000D02*
X103000000Y-148000000D01*
X119500000Y-152000000D02*
X115500000Y-148000000D01*
X115500000Y-148000000D02*
X108785002Y-148000000D01*
X99937347Y-141062653D02*
X101000000Y-140000000D01*
X109650001Y-156230001D02*
X110500000Y-157080000D01*
X106595001Y-153175001D02*
X109650001Y-156230001D01*
X104939997Y-153175001D02*
X106595001Y-153175001D01*
X97511409Y-157005001D02*
X101109997Y-157005001D01*
X92431409Y-162085001D02*
X97511409Y-157005001D01*
X82219999Y-162085001D02*
X92431409Y-162085001D01*
X101109997Y-157005001D02*
X104939997Y-153175001D01*
X81184989Y-161049991D02*
X82219999Y-162085001D01*
X81184989Y-132930009D02*
X81184989Y-161049991D01*
X82219999Y-131894999D02*
X81184989Y-132930009D01*
X96585001Y-131894999D02*
X82219999Y-131894999D01*
X98000000Y-130480000D02*
X96585001Y-131894999D01*
X111675001Y-155715001D02*
X111349999Y-155389999D01*
X109935999Y-158255001D02*
X111064001Y-158255001D01*
X97459999Y-159545001D02*
X108645999Y-159545001D01*
X92379999Y-164625001D02*
X97459999Y-159545001D01*
X111675001Y-157644001D02*
X111675001Y-155715001D01*
X111064001Y-158255001D02*
X111675001Y-157644001D01*
X82219999Y-164625001D02*
X92379999Y-164625001D01*
X80734980Y-163139982D02*
X82219999Y-164625001D01*
X80734980Y-130840018D02*
X80734980Y-163139982D01*
X82219999Y-129354999D02*
X80734980Y-130840018D01*
X111349999Y-155389999D02*
X110500000Y-154540000D01*
X96585001Y-129354999D02*
X82219999Y-129354999D01*
X108645999Y-159545001D02*
X109935999Y-158255001D01*
X98000000Y-127940000D02*
X96585001Y-129354999D01*
X127500000Y-131500000D02*
X127500000Y-136500000D01*
X119000000Y-123000000D02*
X127500000Y-131500000D01*
X122000000Y-131000000D02*
X119000000Y-131000000D01*
X119000000Y-131000000D02*
X118000000Y-132000000D01*
X113500000Y-132295000D02*
X113500000Y-135799989D01*
X141540001Y-145800001D02*
X142740000Y-147000000D01*
X138224991Y-142484991D02*
X141540001Y-145800001D01*
X138224991Y-138914991D02*
X138224991Y-142484991D01*
X128960000Y-129650000D02*
X138224991Y-138914991D01*
X128960000Y-128500000D02*
X128960000Y-129650000D01*
X117960000Y-167500000D02*
X133620000Y-151840000D01*
X116000000Y-167500000D02*
X117960000Y-167500000D01*
X127740001Y-152639999D02*
X128540000Y-151840000D01*
X127414999Y-152965001D02*
X127740001Y-152639999D01*
X126255997Y-152965001D02*
X127414999Y-152965001D01*
X112284999Y-166935999D02*
X126255997Y-152965001D01*
X112284999Y-167874003D02*
X112284999Y-166935999D01*
X111484001Y-168675001D02*
X112284999Y-167874003D01*
X109555001Y-168675001D02*
X111484001Y-168675001D01*
X108380000Y-167500000D02*
X109555001Y-168675001D01*
X125200001Y-152639999D02*
X126000000Y-151840000D01*
X111515001Y-166324999D02*
X125200001Y-152639999D01*
X104475001Y-166324999D02*
X111515001Y-166324999D01*
X103300000Y-167500000D02*
X104475001Y-166324999D01*
X137724999Y-121324999D02*
X138900000Y-122500000D01*
X138900000Y-122500000D02*
X140000000Y-122500000D01*
X132215001Y-121324999D02*
X137724999Y-121324999D01*
X131040000Y-122500000D02*
X132215001Y-121324999D01*
D26*
G36*
X151170986Y-120679294D02*
G01*
X150944866Y-120864866D01*
X150759294Y-121090986D01*
X150621401Y-121348966D01*
X150536487Y-121628889D01*
X150507815Y-121920000D01*
X150536487Y-122211111D01*
X150621401Y-122491034D01*
X150759294Y-122749014D01*
X150944866Y-122975134D01*
X151170986Y-123160706D01*
X151225791Y-123190000D01*
X151170986Y-123219294D01*
X150944866Y-123404866D01*
X150759294Y-123630986D01*
X150621401Y-123888966D01*
X150536487Y-124168889D01*
X150507815Y-124460000D01*
X150536487Y-124751111D01*
X150621401Y-125031034D01*
X150759294Y-125289014D01*
X150944866Y-125515134D01*
X150974687Y-125539607D01*
X150905820Y-125560498D01*
X150795506Y-125619463D01*
X150698815Y-125698815D01*
X150619463Y-125795506D01*
X150560498Y-125905820D01*
X150524188Y-126025518D01*
X150511928Y-126150000D01*
X150515000Y-126714250D01*
X150673750Y-126873000D01*
X151873000Y-126873000D01*
X151873000Y-126853000D01*
X152127000Y-126853000D01*
X152127000Y-126873000D01*
X153326250Y-126873000D01*
X153485000Y-126714250D01*
X153488072Y-126150000D01*
X153475812Y-126025518D01*
X153439502Y-125905820D01*
X153380537Y-125795506D01*
X153301185Y-125698815D01*
X153204494Y-125619463D01*
X153094180Y-125560498D01*
X153025313Y-125539607D01*
X153055134Y-125515134D01*
X153240706Y-125289014D01*
X153378599Y-125031034D01*
X153463513Y-124751111D01*
X153492185Y-124460000D01*
X153463513Y-124168889D01*
X153378599Y-123888966D01*
X153240706Y-123630986D01*
X153055134Y-123404866D01*
X152829014Y-123219294D01*
X152774209Y-123190000D01*
X152829014Y-123160706D01*
X153055134Y-122975134D01*
X153240706Y-122749014D01*
X153378599Y-122491034D01*
X153463513Y-122211111D01*
X153492185Y-121920000D01*
X153463513Y-121628889D01*
X153378599Y-121348966D01*
X153240706Y-121090986D01*
X153055134Y-120864866D01*
X152829014Y-120679294D01*
X152792917Y-120660000D01*
X154340001Y-120660000D01*
X154340000Y-169340000D01*
X128234802Y-169340000D01*
X129039802Y-168535000D01*
X129101939Y-168535000D01*
X129301898Y-168495226D01*
X129490256Y-168417205D01*
X129659774Y-168303937D01*
X129803937Y-168159774D01*
X129917205Y-167990256D01*
X129972446Y-167856891D01*
X130478519Y-167856891D01*
X130575843Y-168131252D01*
X130724822Y-168381355D01*
X130919731Y-168597588D01*
X131153080Y-168771641D01*
X131415901Y-168896825D01*
X131563110Y-168941476D01*
X131793000Y-168820155D01*
X131793000Y-167627000D01*
X130599186Y-167627000D01*
X130478519Y-167856891D01*
X129972446Y-167856891D01*
X129995226Y-167801898D01*
X130035000Y-167601939D01*
X130035000Y-167398061D01*
X129995226Y-167198102D01*
X129972447Y-167143109D01*
X130478519Y-167143109D01*
X130599186Y-167373000D01*
X131793000Y-167373000D01*
X131793000Y-166179845D01*
X132047000Y-166179845D01*
X132047000Y-167373000D01*
X132067000Y-167373000D01*
X132067000Y-167627000D01*
X132047000Y-167627000D01*
X132047000Y-168820155D01*
X132276890Y-168941476D01*
X132424099Y-168896825D01*
X132686920Y-168771641D01*
X132920269Y-168597588D01*
X133115178Y-168381355D01*
X133184799Y-168264477D01*
X133219294Y-168329014D01*
X133404866Y-168555134D01*
X133630986Y-168740706D01*
X133888966Y-168878599D01*
X134168889Y-168963513D01*
X134387050Y-168985000D01*
X134532950Y-168985000D01*
X134751111Y-168963513D01*
X135031034Y-168878599D01*
X135289014Y-168740706D01*
X135515134Y-168555134D01*
X135539607Y-168525313D01*
X135560498Y-168594180D01*
X135619463Y-168704494D01*
X135698815Y-168801185D01*
X135795506Y-168880537D01*
X135905820Y-168939502D01*
X136025518Y-168975812D01*
X136150000Y-168988072D01*
X137850000Y-168988072D01*
X137974482Y-168975812D01*
X138094180Y-168939502D01*
X138204494Y-168880537D01*
X138301185Y-168801185D01*
X138380537Y-168704494D01*
X138439502Y-168594180D01*
X138475812Y-168474482D01*
X138488072Y-168350000D01*
X138488072Y-166650000D01*
X138478410Y-166551891D01*
X150558524Y-166551891D01*
X150603175Y-166699100D01*
X150728359Y-166961921D01*
X150902412Y-167195270D01*
X151118645Y-167390179D01*
X151368748Y-167539158D01*
X151643109Y-167636482D01*
X151873000Y-167515815D01*
X151873000Y-166322001D01*
X152127000Y-166322001D01*
X152127000Y-167515815D01*
X152356891Y-167636482D01*
X152631252Y-167539158D01*
X152881355Y-167390179D01*
X153097588Y-167195270D01*
X153271641Y-166961921D01*
X153396825Y-166699100D01*
X153441476Y-166551891D01*
X153320155Y-166322001D01*
X152127000Y-166322001D01*
X151873000Y-166322001D01*
X150679845Y-166322001D01*
X150558524Y-166551891D01*
X138478410Y-166551891D01*
X138475812Y-166525518D01*
X138439502Y-166405820D01*
X138380537Y-166295506D01*
X138301185Y-166198815D01*
X138204494Y-166119463D01*
X138094180Y-166060498D01*
X137974482Y-166024188D01*
X137850000Y-166011928D01*
X136150000Y-166011928D01*
X136025518Y-166024188D01*
X135905820Y-166060498D01*
X135795506Y-166119463D01*
X135698815Y-166198815D01*
X135619463Y-166295506D01*
X135560498Y-166405820D01*
X135539607Y-166474687D01*
X135515134Y-166444866D01*
X135289014Y-166259294D01*
X135031034Y-166121401D01*
X134751111Y-166036487D01*
X134532950Y-166015000D01*
X134387050Y-166015000D01*
X134168889Y-166036487D01*
X133888966Y-166121401D01*
X133630986Y-166259294D01*
X133404866Y-166444866D01*
X133219294Y-166670986D01*
X133184799Y-166735523D01*
X133115178Y-166618645D01*
X132920269Y-166402412D01*
X132686920Y-166228359D01*
X132424099Y-166103175D01*
X132276890Y-166058524D01*
X132047000Y-166179845D01*
X131793000Y-166179845D01*
X131563110Y-166058524D01*
X131415901Y-166103175D01*
X131153080Y-166228359D01*
X130919731Y-166402412D01*
X130724822Y-166618645D01*
X130575843Y-166868748D01*
X130478519Y-167143109D01*
X129972447Y-167143109D01*
X129917205Y-167009744D01*
X129803937Y-166840226D01*
X129659774Y-166696063D01*
X129490256Y-166582795D01*
X129301898Y-166504774D01*
X129101939Y-166465000D01*
X128898061Y-166465000D01*
X128698102Y-166504774D01*
X128509744Y-166582795D01*
X128340226Y-166696063D01*
X128196063Y-166840226D01*
X128082795Y-167009744D01*
X128004774Y-167198102D01*
X127965000Y-167398061D01*
X127965000Y-167460198D01*
X127488072Y-167937126D01*
X127488072Y-166650000D01*
X127475812Y-166525518D01*
X127439502Y-166405820D01*
X127380537Y-166295506D01*
X127301185Y-166198815D01*
X127204494Y-166119463D01*
X127094180Y-166060498D01*
X126974482Y-166024188D01*
X126850000Y-166011928D01*
X125150000Y-166011928D01*
X125025518Y-166024188D01*
X124905820Y-166060498D01*
X124795506Y-166119463D01*
X124698815Y-166198815D01*
X124619463Y-166295506D01*
X124560498Y-166405820D01*
X124539607Y-166474687D01*
X124515134Y-166444866D01*
X124289014Y-166259294D01*
X124031034Y-166121401D01*
X123751111Y-166036487D01*
X123532950Y-166015000D01*
X123387050Y-166015000D01*
X123168889Y-166036487D01*
X122888966Y-166121401D01*
X122630986Y-166259294D01*
X122404866Y-166444866D01*
X122219294Y-166670986D01*
X122184799Y-166735523D01*
X122115178Y-166618645D01*
X121920269Y-166402412D01*
X121686920Y-166228359D01*
X121424099Y-166103175D01*
X121276890Y-166058524D01*
X121047002Y-166179844D01*
X121047002Y-166124210D01*
X123286211Y-163885001D01*
X132457677Y-163885001D01*
X132494999Y-163888677D01*
X132532321Y-163885001D01*
X132532332Y-163885001D01*
X132643985Y-163874004D01*
X132787246Y-163830547D01*
X132919275Y-163759975D01*
X133035000Y-163665002D01*
X133058803Y-163635999D01*
X133294094Y-163400708D01*
X133338691Y-163414236D01*
X133549508Y-163435000D01*
X133690492Y-163435000D01*
X133901309Y-163414236D01*
X134171808Y-163332182D01*
X134421101Y-163198932D01*
X134639608Y-163019608D01*
X134818932Y-162801101D01*
X134890000Y-162668142D01*
X134961068Y-162801101D01*
X135140392Y-163019608D01*
X135358899Y-163198932D01*
X135608192Y-163332182D01*
X135878691Y-163414236D01*
X136089508Y-163435000D01*
X136230492Y-163435000D01*
X136441309Y-163414236D01*
X136711808Y-163332182D01*
X136961101Y-163198932D01*
X137179608Y-163019608D01*
X137358932Y-162801101D01*
X137430000Y-162668142D01*
X137501068Y-162801101D01*
X137680392Y-163019608D01*
X137898899Y-163198932D01*
X138148192Y-163332182D01*
X138418691Y-163414236D01*
X138629508Y-163435000D01*
X138770492Y-163435000D01*
X138981309Y-163414236D01*
X139251808Y-163332182D01*
X139501101Y-163198932D01*
X139719608Y-163019608D01*
X139898932Y-162801101D01*
X139970000Y-162668142D01*
X140041068Y-162801101D01*
X140220392Y-163019608D01*
X140438899Y-163198932D01*
X140688192Y-163332182D01*
X140958691Y-163414236D01*
X141169508Y-163435000D01*
X141310492Y-163435000D01*
X141521309Y-163414236D01*
X141791808Y-163332182D01*
X142041101Y-163198932D01*
X142259608Y-163019608D01*
X142438932Y-162801101D01*
X142512579Y-162663318D01*
X142627615Y-162855131D01*
X142816586Y-163063519D01*
X143042580Y-163231037D01*
X143296913Y-163351246D01*
X143430961Y-163391904D01*
X143653000Y-163269915D01*
X143653000Y-162127000D01*
X143907000Y-162127000D01*
X143907000Y-163269915D01*
X144129039Y-163391904D01*
X144263087Y-163351246D01*
X144517420Y-163231037D01*
X144743414Y-163063519D01*
X144932385Y-162855131D01*
X145077070Y-162613881D01*
X145171909Y-162349040D01*
X145050624Y-162127000D01*
X143907000Y-162127000D01*
X143653000Y-162127000D01*
X143633000Y-162127000D01*
X143633000Y-161873000D01*
X143653000Y-161873000D01*
X143653000Y-160730085D01*
X143907000Y-160730085D01*
X143907000Y-161873000D01*
X145050624Y-161873000D01*
X145171909Y-161650960D01*
X145077070Y-161386119D01*
X144932385Y-161144869D01*
X144743414Y-160936481D01*
X144517420Y-160768963D01*
X144263087Y-160648754D01*
X144129039Y-160608096D01*
X143907000Y-160730085D01*
X143653000Y-160730085D01*
X143430961Y-160608096D01*
X143296913Y-160648754D01*
X143042580Y-160768963D01*
X142816586Y-160936481D01*
X142627615Y-161144869D01*
X142512579Y-161336682D01*
X142438932Y-161198899D01*
X142259608Y-160980392D01*
X142041101Y-160801068D01*
X141791808Y-160667818D01*
X141521309Y-160585764D01*
X141310492Y-160565000D01*
X141169508Y-160565000D01*
X140958691Y-160585764D01*
X140688192Y-160667818D01*
X140438899Y-160801068D01*
X140220392Y-160980392D01*
X140041068Y-161198899D01*
X139970000Y-161331858D01*
X139898932Y-161198899D01*
X139719608Y-160980392D01*
X139501101Y-160801068D01*
X139251808Y-160667818D01*
X138981309Y-160585764D01*
X138770492Y-160565000D01*
X138629508Y-160565000D01*
X138418691Y-160585764D01*
X138148192Y-160667818D01*
X137898899Y-160801068D01*
X137680392Y-160980392D01*
X137501068Y-161198899D01*
X137430000Y-161331858D01*
X137358932Y-161198899D01*
X137179608Y-160980392D01*
X136961101Y-160801068D01*
X136711808Y-160667818D01*
X136441309Y-160585764D01*
X136230492Y-160565000D01*
X136089508Y-160565000D01*
X135878691Y-160585764D01*
X135608192Y-160667818D01*
X135358899Y-160801068D01*
X135140392Y-160980392D01*
X134961068Y-161198899D01*
X134890000Y-161331858D01*
X134818932Y-161198899D01*
X134639608Y-160980392D01*
X134421101Y-160801068D01*
X134171808Y-160667818D01*
X133901309Y-160585764D01*
X133690492Y-160565000D01*
X133549508Y-160565000D01*
X133338691Y-160585764D01*
X133068192Y-160667818D01*
X132818899Y-160801068D01*
X132600392Y-160980392D01*
X132421068Y-161198899D01*
X132350000Y-161331858D01*
X132278932Y-161198899D01*
X132099608Y-160980392D01*
X131881101Y-160801068D01*
X131631808Y-160667818D01*
X131361309Y-160585764D01*
X131150492Y-160565000D01*
X131009508Y-160565000D01*
X130798691Y-160585764D01*
X130528192Y-160667818D01*
X130278899Y-160801068D01*
X130060392Y-160980392D01*
X129881068Y-161198899D01*
X129810000Y-161331858D01*
X129738932Y-161198899D01*
X129559608Y-160980392D01*
X129341101Y-160801068D01*
X129091808Y-160667818D01*
X128821309Y-160585764D01*
X128610492Y-160565000D01*
X128469508Y-160565000D01*
X128258691Y-160585764D01*
X127988192Y-160667818D01*
X127738899Y-160801068D01*
X127520392Y-160980392D01*
X127427581Y-161093482D01*
X127425812Y-161075518D01*
X127389502Y-160955820D01*
X127330537Y-160845506D01*
X127251185Y-160748815D01*
X127154494Y-160669463D01*
X127044180Y-160610498D01*
X126924482Y-160574188D01*
X126800000Y-160561928D01*
X125972874Y-160561928D01*
X133294095Y-153240708D01*
X133338691Y-153254236D01*
X133549508Y-153275000D01*
X133690492Y-153275000D01*
X133901309Y-153254236D01*
X134171808Y-153172182D01*
X134421101Y-153038932D01*
X134639608Y-152859608D01*
X134818932Y-152641101D01*
X134890000Y-152508142D01*
X134961068Y-152641101D01*
X135140392Y-152859608D01*
X135358899Y-153038932D01*
X135608192Y-153172182D01*
X135878691Y-153254236D01*
X136089508Y-153275000D01*
X136230492Y-153275000D01*
X136441309Y-153254236D01*
X136711808Y-153172182D01*
X136961101Y-153038932D01*
X137179608Y-152859608D01*
X137358932Y-152641101D01*
X137430000Y-152508142D01*
X137501068Y-152641101D01*
X137680392Y-152859608D01*
X137898899Y-153038932D01*
X138148192Y-153172182D01*
X138418691Y-153254236D01*
X138629508Y-153275000D01*
X138770492Y-153275000D01*
X138981309Y-153254236D01*
X139251808Y-153172182D01*
X139501101Y-153038932D01*
X139719608Y-152859608D01*
X139898932Y-152641101D01*
X139970000Y-152508142D01*
X140041068Y-152641101D01*
X140220392Y-152859608D01*
X140438899Y-153038932D01*
X140688192Y-153172182D01*
X140958691Y-153254236D01*
X141169508Y-153275000D01*
X141310492Y-153275000D01*
X141521309Y-153254236D01*
X141791808Y-153172182D01*
X142041101Y-153038932D01*
X142259608Y-152859608D01*
X142438932Y-152641101D01*
X142510000Y-152508142D01*
X142581068Y-152641101D01*
X142760392Y-152859608D01*
X142978899Y-153038932D01*
X143228192Y-153172182D01*
X143498691Y-153254236D01*
X143709508Y-153275000D01*
X143850492Y-153275000D01*
X144061309Y-153254236D01*
X144331808Y-153172182D01*
X144581101Y-153038932D01*
X144799608Y-152859608D01*
X144978932Y-152641101D01*
X145072062Y-152466867D01*
X150064999Y-157459805D01*
X150065000Y-162442668D01*
X150061323Y-162480000D01*
X150065000Y-162517333D01*
X150075997Y-162628986D01*
X150084196Y-162656015D01*
X150119453Y-162772246D01*
X150190025Y-162904276D01*
X150261196Y-162990997D01*
X150284999Y-163020001D01*
X150313997Y-163043799D01*
X150559203Y-163289005D01*
X150536487Y-163363890D01*
X150507815Y-163655001D01*
X150536487Y-163946112D01*
X150621401Y-164226035D01*
X150759294Y-164484015D01*
X150944866Y-164710135D01*
X151170986Y-164895707D01*
X151235523Y-164930202D01*
X151118645Y-164999823D01*
X150902412Y-165194732D01*
X150728359Y-165428081D01*
X150603175Y-165690902D01*
X150558524Y-165838111D01*
X150679845Y-166068001D01*
X151873000Y-166068001D01*
X151873000Y-166048001D01*
X152127000Y-166048001D01*
X152127000Y-166068001D01*
X153320155Y-166068001D01*
X153441476Y-165838111D01*
X153396825Y-165690902D01*
X153271641Y-165428081D01*
X153097588Y-165194732D01*
X152881355Y-164999823D01*
X152764477Y-164930202D01*
X152829014Y-164895707D01*
X153055134Y-164710135D01*
X153240706Y-164484015D01*
X153378599Y-164226035D01*
X153463513Y-163946112D01*
X153492185Y-163655001D01*
X153463513Y-163363890D01*
X153378599Y-163083967D01*
X153240706Y-162825987D01*
X153055134Y-162599867D01*
X152829014Y-162414295D01*
X152774209Y-162385001D01*
X152829014Y-162355707D01*
X153055134Y-162170135D01*
X153240706Y-161944015D01*
X153378599Y-161686035D01*
X153463513Y-161406112D01*
X153492185Y-161115001D01*
X153463513Y-160823890D01*
X153378599Y-160543967D01*
X153240706Y-160285987D01*
X153055134Y-160059867D01*
X152829014Y-159874295D01*
X152774209Y-159845001D01*
X152829014Y-159815707D01*
X153055134Y-159630135D01*
X153240706Y-159404015D01*
X153378599Y-159146035D01*
X153463513Y-158866112D01*
X153492185Y-158575001D01*
X153463513Y-158283890D01*
X153378599Y-158003967D01*
X153240706Y-157745987D01*
X153055134Y-157519867D01*
X153025313Y-157495394D01*
X153094180Y-157474503D01*
X153204494Y-157415538D01*
X153301185Y-157336186D01*
X153380537Y-157239495D01*
X153439502Y-157129181D01*
X153475812Y-157009483D01*
X153488072Y-156885001D01*
X153485000Y-156320751D01*
X153326250Y-156162001D01*
X152127000Y-156162001D01*
X152127000Y-156182001D01*
X151873000Y-156182001D01*
X151873000Y-156162001D01*
X151853000Y-156162001D01*
X151853000Y-155908001D01*
X151873000Y-155908001D01*
X151873000Y-154708751D01*
X152127000Y-154708751D01*
X152127000Y-155908001D01*
X153326250Y-155908001D01*
X153485000Y-155749251D01*
X153488072Y-155185001D01*
X153475812Y-155060519D01*
X153439502Y-154940821D01*
X153380537Y-154830507D01*
X153301185Y-154733816D01*
X153204494Y-154654464D01*
X153094180Y-154595499D01*
X152974482Y-154559189D01*
X152850000Y-154546929D01*
X152285750Y-154550001D01*
X152127000Y-154708751D01*
X151873000Y-154708751D01*
X151714250Y-154550001D01*
X151150000Y-154546929D01*
X151025518Y-154559189D01*
X150905820Y-154595499D01*
X150795506Y-154654464D01*
X150698815Y-154733816D01*
X150619463Y-154830507D01*
X150560498Y-154940821D01*
X150524188Y-155060519D01*
X150511928Y-155185001D01*
X150515000Y-155749251D01*
X150673748Y-155907999D01*
X150662799Y-155907999D01*
X145594798Y-150840000D01*
X150722405Y-150840000D01*
X150759294Y-150909014D01*
X150944866Y-151135134D01*
X151170986Y-151320706D01*
X151428966Y-151458599D01*
X151708889Y-151543513D01*
X151927050Y-151565000D01*
X152072950Y-151565000D01*
X152291111Y-151543513D01*
X152571034Y-151458599D01*
X152829014Y-151320706D01*
X153055134Y-151135134D01*
X153240706Y-150909014D01*
X153378599Y-150651034D01*
X153463513Y-150371111D01*
X153492185Y-150080000D01*
X153463513Y-149788889D01*
X153378599Y-149508966D01*
X153240706Y-149250986D01*
X153055134Y-149024866D01*
X152829014Y-148839294D01*
X152764477Y-148804799D01*
X152881355Y-148735178D01*
X153097588Y-148540269D01*
X153271641Y-148306920D01*
X153396825Y-148044099D01*
X153441476Y-147896890D01*
X153320155Y-147667000D01*
X152127000Y-147667000D01*
X152127000Y-147687000D01*
X151873000Y-147687000D01*
X151873000Y-147667000D01*
X150679845Y-147667000D01*
X150558524Y-147896890D01*
X150603175Y-148044099D01*
X150728359Y-148306920D01*
X150902412Y-148540269D01*
X151118645Y-148735178D01*
X151235523Y-148804799D01*
X151170986Y-148839294D01*
X150944866Y-149024866D01*
X150759294Y-149250986D01*
X150722405Y-149320000D01*
X133151804Y-149320000D01*
X127666804Y-143835000D01*
X127680732Y-143835000D01*
X128035250Y-143764482D01*
X128369199Y-143626156D01*
X128669744Y-143425338D01*
X128925338Y-143169744D01*
X129126156Y-142869199D01*
X129264482Y-142535250D01*
X129335000Y-142180732D01*
X129335000Y-141819268D01*
X129264482Y-141464750D01*
X129126156Y-141130801D01*
X128925338Y-140830256D01*
X128669744Y-140574662D01*
X128369199Y-140373844D01*
X128035250Y-140235518D01*
X127680732Y-140165000D01*
X127319268Y-140165000D01*
X126964750Y-140235518D01*
X126630801Y-140373844D01*
X126330256Y-140574662D01*
X126074662Y-140830256D01*
X125873844Y-141130801D01*
X125735518Y-141464750D01*
X125665000Y-141819268D01*
X125665000Y-141833197D01*
X121129865Y-137298062D01*
X122965000Y-137298062D01*
X122965000Y-137501940D01*
X123004774Y-137701899D01*
X123082795Y-137890257D01*
X123196063Y-138059775D01*
X123340226Y-138203938D01*
X123509744Y-138317206D01*
X123667721Y-138382643D01*
X123582795Y-138509744D01*
X123504774Y-138698102D01*
X123465000Y-138898061D01*
X123465000Y-139101939D01*
X123504774Y-139301898D01*
X123582795Y-139490256D01*
X123696063Y-139659774D01*
X123840226Y-139803937D01*
X124009744Y-139917205D01*
X124198102Y-139995226D01*
X124398061Y-140035000D01*
X124601939Y-140035000D01*
X124801898Y-139995226D01*
X124990256Y-139917205D01*
X125159774Y-139803937D01*
X125303937Y-139659774D01*
X125417205Y-139490256D01*
X125495226Y-139301898D01*
X125535000Y-139101939D01*
X125535000Y-138898061D01*
X125495226Y-138698102D01*
X125417205Y-138509744D01*
X125303937Y-138340226D01*
X125260000Y-138296289D01*
X125260000Y-137937326D01*
X125263676Y-137900001D01*
X125260000Y-137862676D01*
X125260000Y-137862668D01*
X125249003Y-137751015D01*
X125205546Y-137607754D01*
X125134974Y-137475725D01*
X125040001Y-137360000D01*
X125035000Y-137355896D01*
X125035000Y-137298062D01*
X124995226Y-137098103D01*
X124917205Y-136909745D01*
X124803937Y-136740227D01*
X124659774Y-136596064D01*
X124490256Y-136482796D01*
X124301898Y-136404775D01*
X124101939Y-136365001D01*
X123898061Y-136365001D01*
X123698102Y-136404775D01*
X123509744Y-136482796D01*
X123340226Y-136596064D01*
X123196063Y-136740227D01*
X123082795Y-136909745D01*
X123004774Y-137098103D01*
X122965000Y-137298062D01*
X121129865Y-137298062D01*
X120295805Y-136464002D01*
X120272002Y-136434998D01*
X120249627Y-136416635D01*
X120288184Y-136426300D01*
X120570512Y-136440217D01*
X120850130Y-136398787D01*
X121116292Y-136303603D01*
X121241514Y-136236671D01*
X121313097Y-135992702D01*
X120500000Y-135179605D01*
X119686903Y-135992702D01*
X119751615Y-136213255D01*
X119732001Y-136211323D01*
X119694679Y-136214999D01*
X118280882Y-136214999D01*
X118330537Y-136154494D01*
X118389502Y-136044180D01*
X118425812Y-135924482D01*
X118438072Y-135800000D01*
X118438072Y-135070512D01*
X119059783Y-135070512D01*
X119101213Y-135350130D01*
X119196397Y-135616292D01*
X119263329Y-135741514D01*
X119507298Y-135813097D01*
X120320395Y-135000000D01*
X120679605Y-135000000D01*
X121492702Y-135813097D01*
X121736671Y-135741514D01*
X121857571Y-135486004D01*
X121926300Y-135211816D01*
X121940217Y-134929488D01*
X121898787Y-134649870D01*
X121803603Y-134383708D01*
X121736671Y-134258486D01*
X121492702Y-134186903D01*
X120679605Y-135000000D01*
X120320395Y-135000000D01*
X119507298Y-134186903D01*
X119263329Y-134258486D01*
X119142429Y-134513996D01*
X119073700Y-134788184D01*
X119059783Y-135070512D01*
X118438072Y-135070512D01*
X118438072Y-134200000D01*
X118425812Y-134075518D01*
X118405118Y-134007298D01*
X119686903Y-134007298D01*
X120500000Y-134820395D01*
X121313097Y-134007298D01*
X121241514Y-133763329D01*
X120986004Y-133642429D01*
X120711816Y-133573700D01*
X120429488Y-133559783D01*
X120149870Y-133601213D01*
X119883708Y-133696397D01*
X119758486Y-133763329D01*
X119686903Y-134007298D01*
X118405118Y-134007298D01*
X118389502Y-133955820D01*
X118330537Y-133845506D01*
X118251185Y-133748815D01*
X118154494Y-133669463D01*
X118044180Y-133610498D01*
X117924482Y-133574188D01*
X117800000Y-133561928D01*
X117760000Y-133561928D01*
X117760000Y-133007538D01*
X117898061Y-133035000D01*
X118101939Y-133035000D01*
X118301898Y-132995226D01*
X118490256Y-132917205D01*
X118659774Y-132803937D01*
X118803937Y-132659774D01*
X118917205Y-132490256D01*
X118995226Y-132301898D01*
X119035000Y-132101939D01*
X119035000Y-132039801D01*
X119314802Y-131760000D01*
X121296289Y-131760000D01*
X121340226Y-131803937D01*
X121509744Y-131917205D01*
X121698102Y-131995226D01*
X121898061Y-132035000D01*
X122101939Y-132035000D01*
X122301898Y-131995226D01*
X122490256Y-131917205D01*
X122659774Y-131803937D01*
X122803937Y-131659774D01*
X122917205Y-131490256D01*
X122995226Y-131301898D01*
X123035000Y-131101939D01*
X123035000Y-130898061D01*
X122995226Y-130698102D01*
X122917205Y-130509744D01*
X122803937Y-130340226D01*
X122659774Y-130196063D01*
X122490256Y-130082795D01*
X122301898Y-130004774D01*
X122101939Y-129965000D01*
X121898061Y-129965000D01*
X121698102Y-130004774D01*
X121509744Y-130082795D01*
X121340226Y-130196063D01*
X121296289Y-130240000D01*
X119037333Y-130240000D01*
X119000000Y-130236323D01*
X118962667Y-130240000D01*
X118851014Y-130250997D01*
X118707753Y-130294454D01*
X118575724Y-130365026D01*
X118459999Y-130459999D01*
X118436201Y-130488997D01*
X117960199Y-130965000D01*
X117898061Y-130965000D01*
X117760000Y-130992462D01*
X117760000Y-129152239D01*
X117957748Y-129349987D01*
X118225537Y-129528918D01*
X118523088Y-129652168D01*
X118838967Y-129715000D01*
X119161033Y-129715000D01*
X119476912Y-129652168D01*
X119774463Y-129528918D01*
X120042252Y-129349987D01*
X120269987Y-129122252D01*
X120448918Y-128854463D01*
X120572168Y-128556912D01*
X120635000Y-128241033D01*
X120635000Y-127918967D01*
X120572168Y-127603088D01*
X120448918Y-127305537D01*
X120269987Y-127037748D01*
X120042252Y-126810013D01*
X119774463Y-126631082D01*
X119476912Y-126507832D01*
X119161033Y-126445000D01*
X118838967Y-126445000D01*
X118523088Y-126507832D01*
X118225537Y-126631082D01*
X117957748Y-126810013D01*
X117760000Y-127007761D01*
X117760000Y-124072239D01*
X117957748Y-124269987D01*
X118225537Y-124448918D01*
X118523088Y-124572168D01*
X118838967Y-124635000D01*
X119161033Y-124635000D01*
X119476912Y-124572168D01*
X119491376Y-124566177D01*
X126740000Y-131814802D01*
X126740001Y-134561928D01*
X126200000Y-134561928D01*
X126075518Y-134574188D01*
X125955820Y-134610498D01*
X125845506Y-134669463D01*
X125748815Y-134748815D01*
X125669463Y-134845506D01*
X125610498Y-134955820D01*
X125574188Y-135075518D01*
X125561928Y-135200000D01*
X125561928Y-137800000D01*
X125574188Y-137924482D01*
X125610498Y-138044180D01*
X125669463Y-138154494D01*
X125748815Y-138251185D01*
X125845506Y-138330537D01*
X125955820Y-138389502D01*
X126075518Y-138425812D01*
X126200000Y-138438072D01*
X128800000Y-138438072D01*
X128924482Y-138425812D01*
X129044180Y-138389502D01*
X129154494Y-138330537D01*
X129251185Y-138251185D01*
X129330537Y-138154494D01*
X129389502Y-138044180D01*
X129425812Y-137924482D01*
X129438072Y-137800000D01*
X129438072Y-135200000D01*
X129425812Y-135075518D01*
X129389502Y-134955820D01*
X129330537Y-134845506D01*
X129251185Y-134748815D01*
X129154494Y-134669463D01*
X129044180Y-134610498D01*
X128924482Y-134574188D01*
X128800000Y-134561928D01*
X128260000Y-134561928D01*
X128260000Y-132698391D01*
X132740001Y-137178393D01*
X132740000Y-140296289D01*
X132696063Y-140340226D01*
X132582795Y-140509744D01*
X132504774Y-140698102D01*
X132465000Y-140898061D01*
X132465000Y-141101939D01*
X132504774Y-141301898D01*
X132582795Y-141490256D01*
X132696063Y-141659774D01*
X132840226Y-141803937D01*
X133009744Y-141917205D01*
X133198102Y-141995226D01*
X133398061Y-142035000D01*
X133601939Y-142035000D01*
X133801898Y-141995226D01*
X133990256Y-141917205D01*
X134159774Y-141803937D01*
X134303937Y-141659774D01*
X134417205Y-141490256D01*
X134495226Y-141301898D01*
X134535000Y-141101939D01*
X134535000Y-140898061D01*
X134495226Y-140698102D01*
X134417205Y-140509744D01*
X134303937Y-140340226D01*
X134260000Y-140296289D01*
X134260000Y-136900923D01*
X134263677Y-136863590D01*
X134249003Y-136714604D01*
X134205546Y-136571343D01*
X134134974Y-136439314D01*
X134063799Y-136352587D01*
X134040001Y-136323589D01*
X134011003Y-136299791D01*
X128494999Y-130783788D01*
X128494999Y-130259800D01*
X137464991Y-139229793D01*
X137464992Y-142447659D01*
X137461315Y-142484991D01*
X137475989Y-142633976D01*
X137519445Y-142777237D01*
X137590017Y-142909267D01*
X137642227Y-142972884D01*
X137684991Y-143024992D01*
X137713989Y-143048790D01*
X141018580Y-146353382D01*
X140931552Y-146640277D01*
X140896122Y-147000000D01*
X140931552Y-147359723D01*
X141036479Y-147705622D01*
X141206871Y-148024404D01*
X141436181Y-148303819D01*
X141715596Y-148533129D01*
X142034378Y-148703521D01*
X142380277Y-148808448D01*
X142649861Y-148835000D01*
X142830139Y-148835000D01*
X143099723Y-148808448D01*
X143445622Y-148703521D01*
X143764404Y-148533129D01*
X144043819Y-148303819D01*
X144273129Y-148024404D01*
X144443521Y-147705622D01*
X144548448Y-147359723D01*
X144583878Y-147000000D01*
X144548448Y-146640277D01*
X144443521Y-146294378D01*
X144273129Y-145975596D01*
X144043819Y-145696181D01*
X143764404Y-145466871D01*
X143445622Y-145296479D01*
X143099723Y-145191552D01*
X142830139Y-145165000D01*
X142649861Y-145165000D01*
X142380277Y-145191552D01*
X142093382Y-145278580D01*
X140964802Y-144150000D01*
X150511928Y-144150000D01*
X150511928Y-145850000D01*
X150524188Y-145974482D01*
X150560498Y-146094180D01*
X150619463Y-146204494D01*
X150698815Y-146301185D01*
X150795506Y-146380537D01*
X150905820Y-146439502D01*
X150986466Y-146463966D01*
X150902412Y-146539731D01*
X150728359Y-146773080D01*
X150603175Y-147035901D01*
X150558524Y-147183110D01*
X150679845Y-147413000D01*
X151873000Y-147413000D01*
X151873000Y-147393000D01*
X152127000Y-147393000D01*
X152127000Y-147413000D01*
X153320155Y-147413000D01*
X153441476Y-147183110D01*
X153396825Y-147035901D01*
X153271641Y-146773080D01*
X153097588Y-146539731D01*
X153013534Y-146463966D01*
X153094180Y-146439502D01*
X153204494Y-146380537D01*
X153301185Y-146301185D01*
X153380537Y-146204494D01*
X153439502Y-146094180D01*
X153475812Y-145974482D01*
X153488072Y-145850000D01*
X153488072Y-144150000D01*
X153475812Y-144025518D01*
X153439502Y-143905820D01*
X153380537Y-143795506D01*
X153301185Y-143698815D01*
X153204494Y-143619463D01*
X153094180Y-143560498D01*
X152974482Y-143524188D01*
X152850000Y-143511928D01*
X151150000Y-143511928D01*
X151025518Y-143524188D01*
X150905820Y-143560498D01*
X150795506Y-143619463D01*
X150698815Y-143698815D01*
X150619463Y-143795506D01*
X150560498Y-143905820D01*
X150524188Y-144025518D01*
X150511928Y-144150000D01*
X140964802Y-144150000D01*
X138984991Y-142170190D01*
X138984991Y-142000000D01*
X140896122Y-142000000D01*
X140931552Y-142359723D01*
X141036479Y-142705622D01*
X141206871Y-143024404D01*
X141436181Y-143303819D01*
X141715596Y-143533129D01*
X142034378Y-143703521D01*
X142380277Y-143808448D01*
X142649861Y-143835000D01*
X142830139Y-143835000D01*
X143099723Y-143808448D01*
X143445622Y-143703521D01*
X143764404Y-143533129D01*
X144043819Y-143303819D01*
X144273129Y-143024404D01*
X144443521Y-142705622D01*
X144548448Y-142359723D01*
X144583878Y-142000000D01*
X144548448Y-141640277D01*
X144443521Y-141294378D01*
X144273129Y-140975596D01*
X144043819Y-140696181D01*
X143764404Y-140466871D01*
X143445622Y-140296479D01*
X143099723Y-140191552D01*
X142830139Y-140165000D01*
X142649861Y-140165000D01*
X142380277Y-140191552D01*
X142034378Y-140296479D01*
X141715596Y-140466871D01*
X141436181Y-140696181D01*
X141206871Y-140975596D01*
X141036479Y-141294378D01*
X140931552Y-141640277D01*
X140896122Y-142000000D01*
X138984991Y-142000000D01*
X138984991Y-138952314D01*
X138988667Y-138914991D01*
X138984991Y-138877668D01*
X138984991Y-138877658D01*
X138982267Y-138850000D01*
X150511928Y-138850000D01*
X150524188Y-138974482D01*
X150560498Y-139094180D01*
X150619463Y-139204494D01*
X150698815Y-139301185D01*
X150795506Y-139380537D01*
X150905820Y-139439502D01*
X151025518Y-139475812D01*
X151150000Y-139488072D01*
X151714250Y-139485000D01*
X151873000Y-139326250D01*
X151873000Y-138127000D01*
X152127000Y-138127000D01*
X152127000Y-139326250D01*
X152285750Y-139485000D01*
X152850000Y-139488072D01*
X152974482Y-139475812D01*
X153094180Y-139439502D01*
X153204494Y-139380537D01*
X153301185Y-139301185D01*
X153380537Y-139204494D01*
X153439502Y-139094180D01*
X153475812Y-138974482D01*
X153488072Y-138850000D01*
X153485000Y-138285750D01*
X153326250Y-138127000D01*
X152127000Y-138127000D01*
X151873000Y-138127000D01*
X150673750Y-138127000D01*
X150515000Y-138285750D01*
X150511928Y-138850000D01*
X138982267Y-138850000D01*
X138973994Y-138766005D01*
X138930537Y-138622744D01*
X138877904Y-138524276D01*
X138859965Y-138490714D01*
X138788790Y-138403988D01*
X138764992Y-138374990D01*
X138735995Y-138351193D01*
X137312286Y-136927484D01*
X140852811Y-136927484D01*
X140933358Y-137193028D01*
X141103275Y-137532170D01*
X141336091Y-137831646D01*
X141622858Y-138079948D01*
X141952556Y-138267533D01*
X142312515Y-138387193D01*
X142613000Y-138272082D01*
X142613000Y-136627000D01*
X142867000Y-136627000D01*
X142867000Y-138272082D01*
X143167485Y-138387193D01*
X143527444Y-138267533D01*
X143857142Y-138079948D01*
X144143909Y-137831646D01*
X144376725Y-137532170D01*
X144546642Y-137193028D01*
X144627189Y-136927484D01*
X144511704Y-136627000D01*
X142867000Y-136627000D01*
X142613000Y-136627000D01*
X140968296Y-136627000D01*
X140852811Y-136927484D01*
X137312286Y-136927484D01*
X136457318Y-136072516D01*
X140852811Y-136072516D01*
X140968296Y-136373000D01*
X142613000Y-136373000D01*
X142613000Y-134727918D01*
X142867000Y-134727918D01*
X142867000Y-136373000D01*
X144511704Y-136373000D01*
X144627189Y-136072516D01*
X144546642Y-135806972D01*
X144376725Y-135467830D01*
X144143909Y-135168354D01*
X143857142Y-134920052D01*
X143527444Y-134732467D01*
X143167485Y-134612807D01*
X142867000Y-134727918D01*
X142613000Y-134727918D01*
X142312515Y-134612807D01*
X141952556Y-134732467D01*
X141622858Y-134920052D01*
X141336091Y-135168354D01*
X141103275Y-135467830D01*
X140933358Y-135806972D01*
X140852811Y-136072516D01*
X136457318Y-136072516D01*
X133304802Y-132920000D01*
X150507815Y-132920000D01*
X150536487Y-133211111D01*
X150621401Y-133491034D01*
X150759294Y-133749014D01*
X150944866Y-133975134D01*
X151170986Y-134160706D01*
X151225791Y-134190000D01*
X151170986Y-134219294D01*
X150944866Y-134404866D01*
X150759294Y-134630986D01*
X150621401Y-134888966D01*
X150536487Y-135168889D01*
X150507815Y-135460000D01*
X150536487Y-135751111D01*
X150621401Y-136031034D01*
X150759294Y-136289014D01*
X150944866Y-136515134D01*
X150974687Y-136539607D01*
X150905820Y-136560498D01*
X150795506Y-136619463D01*
X150698815Y-136698815D01*
X150619463Y-136795506D01*
X150560498Y-136905820D01*
X150524188Y-137025518D01*
X150511928Y-137150000D01*
X150515000Y-137714250D01*
X150673750Y-137873000D01*
X151873000Y-137873000D01*
X151873000Y-137853000D01*
X152127000Y-137853000D01*
X152127000Y-137873000D01*
X153326250Y-137873000D01*
X153485000Y-137714250D01*
X153488072Y-137150000D01*
X153475812Y-137025518D01*
X153439502Y-136905820D01*
X153380537Y-136795506D01*
X153301185Y-136698815D01*
X153204494Y-136619463D01*
X153094180Y-136560498D01*
X153025313Y-136539607D01*
X153055134Y-136515134D01*
X153240706Y-136289014D01*
X153378599Y-136031034D01*
X153463513Y-135751111D01*
X153492185Y-135460000D01*
X153463513Y-135168889D01*
X153378599Y-134888966D01*
X153240706Y-134630986D01*
X153055134Y-134404866D01*
X152829014Y-134219294D01*
X152774209Y-134190000D01*
X152829014Y-134160706D01*
X153055134Y-133975134D01*
X153240706Y-133749014D01*
X153378599Y-133491034D01*
X153463513Y-133211111D01*
X153492185Y-132920000D01*
X153463513Y-132628889D01*
X153378599Y-132348966D01*
X153240706Y-132090986D01*
X153055134Y-131864866D01*
X152829014Y-131679294D01*
X152571034Y-131541401D01*
X152291111Y-131456487D01*
X152072950Y-131435000D01*
X151927050Y-131435000D01*
X151708889Y-131456487D01*
X151428966Y-131541401D01*
X151170986Y-131679294D01*
X150944866Y-131864866D01*
X150759294Y-132090986D01*
X150621401Y-132348966D01*
X150536487Y-132628889D01*
X150507815Y-132920000D01*
X133304802Y-132920000D01*
X130269882Y-129885081D01*
X130311185Y-129851185D01*
X130390537Y-129754494D01*
X130449502Y-129644180D01*
X130455056Y-129625873D01*
X130521495Y-129692312D01*
X130772905Y-129860299D01*
X131052257Y-129976011D01*
X131348816Y-130035000D01*
X131651184Y-130035000D01*
X131947743Y-129976011D01*
X132227095Y-129860299D01*
X132478505Y-129692312D01*
X132692312Y-129478505D01*
X132860299Y-129227095D01*
X132976011Y-128947743D01*
X133035000Y-128651184D01*
X133035000Y-128348816D01*
X132976011Y-128052257D01*
X132892233Y-127850000D01*
X150511928Y-127850000D01*
X150524188Y-127974482D01*
X150560498Y-128094180D01*
X150619463Y-128204494D01*
X150698815Y-128301185D01*
X150795506Y-128380537D01*
X150905820Y-128439502D01*
X151025518Y-128475812D01*
X151150000Y-128488072D01*
X151714250Y-128485000D01*
X151873000Y-128326250D01*
X151873000Y-127127000D01*
X152127000Y-127127000D01*
X152127000Y-128326250D01*
X152285750Y-128485000D01*
X152850000Y-128488072D01*
X152974482Y-128475812D01*
X153094180Y-128439502D01*
X153204494Y-128380537D01*
X153301185Y-128301185D01*
X153380537Y-128204494D01*
X153439502Y-128094180D01*
X153475812Y-127974482D01*
X153488072Y-127850000D01*
X153485000Y-127285750D01*
X153326250Y-127127000D01*
X152127000Y-127127000D01*
X151873000Y-127127000D01*
X150673750Y-127127000D01*
X150515000Y-127285750D01*
X150511928Y-127850000D01*
X132892233Y-127850000D01*
X132860299Y-127772905D01*
X132692312Y-127521495D01*
X132478505Y-127307688D01*
X132227095Y-127139701D01*
X131947743Y-127023989D01*
X131651184Y-126965000D01*
X131348816Y-126965000D01*
X131052257Y-127023989D01*
X130772905Y-127139701D01*
X130521495Y-127307688D01*
X130455056Y-127374127D01*
X130449502Y-127355820D01*
X130390537Y-127245506D01*
X130311185Y-127148815D01*
X130214494Y-127069463D01*
X130104180Y-127010498D01*
X129984482Y-126974188D01*
X129860000Y-126961928D01*
X129187871Y-126961928D01*
X131264789Y-124885011D01*
X136837667Y-124885011D01*
X136874989Y-124888687D01*
X136912311Y-124885011D01*
X136912322Y-124885011D01*
X137023975Y-124874014D01*
X137167236Y-124830557D01*
X137299265Y-124759985D01*
X137414990Y-124665012D01*
X137438792Y-124636009D01*
X137539801Y-124535000D01*
X137601939Y-124535000D01*
X137801898Y-124495226D01*
X137990256Y-124417205D01*
X138159774Y-124303937D01*
X138303937Y-124159774D01*
X138417205Y-123990256D01*
X138495226Y-123801898D01*
X138535000Y-123601939D01*
X138535000Y-123510124D01*
X138560498Y-123594180D01*
X138619463Y-123704494D01*
X138698815Y-123801185D01*
X138795506Y-123880537D01*
X138905820Y-123939502D01*
X139025518Y-123975812D01*
X139150000Y-123988072D01*
X140850000Y-123988072D01*
X140974482Y-123975812D01*
X141094180Y-123939502D01*
X141204494Y-123880537D01*
X141301185Y-123801185D01*
X141380537Y-123704494D01*
X141439502Y-123594180D01*
X141463966Y-123513534D01*
X141539731Y-123597588D01*
X141773080Y-123771641D01*
X142035901Y-123896825D01*
X142183110Y-123941476D01*
X142413000Y-123820155D01*
X142413000Y-122627000D01*
X142667000Y-122627000D01*
X142667000Y-123820155D01*
X142896890Y-123941476D01*
X143044099Y-123896825D01*
X143306920Y-123771641D01*
X143540269Y-123597588D01*
X143735178Y-123381355D01*
X143884157Y-123131252D01*
X143981481Y-122856891D01*
X143860814Y-122627000D01*
X142667000Y-122627000D01*
X142413000Y-122627000D01*
X142393000Y-122627000D01*
X142393000Y-122373000D01*
X142413000Y-122373000D01*
X142413000Y-121179845D01*
X142667000Y-121179845D01*
X142667000Y-122373000D01*
X143860814Y-122373000D01*
X143981481Y-122143109D01*
X143884157Y-121868748D01*
X143735178Y-121618645D01*
X143540269Y-121402412D01*
X143306920Y-121228359D01*
X143044099Y-121103175D01*
X142896890Y-121058524D01*
X142667000Y-121179845D01*
X142413000Y-121179845D01*
X142183110Y-121058524D01*
X142035901Y-121103175D01*
X141773080Y-121228359D01*
X141539731Y-121402412D01*
X141463966Y-121486466D01*
X141439502Y-121405820D01*
X141380537Y-121295506D01*
X141301185Y-121198815D01*
X141204494Y-121119463D01*
X141094180Y-121060498D01*
X140974482Y-121024188D01*
X140850000Y-121011928D01*
X139150000Y-121011928D01*
X139025518Y-121024188D01*
X138905820Y-121060498D01*
X138795506Y-121119463D01*
X138698815Y-121198815D01*
X138687457Y-121212655D01*
X138288803Y-120814002D01*
X138265000Y-120784998D01*
X138149275Y-120690025D01*
X138093103Y-120660000D01*
X151207083Y-120660000D01*
X151170986Y-120679294D01*
X151170986Y-120679294D01*
G37*
X151170986Y-120679294D02*
X150944866Y-120864866D01*
X150759294Y-121090986D01*
X150621401Y-121348966D01*
X150536487Y-121628889D01*
X150507815Y-121920000D01*
X150536487Y-122211111D01*
X150621401Y-122491034D01*
X150759294Y-122749014D01*
X150944866Y-122975134D01*
X151170986Y-123160706D01*
X151225791Y-123190000D01*
X151170986Y-123219294D01*
X150944866Y-123404866D01*
X150759294Y-123630986D01*
X150621401Y-123888966D01*
X150536487Y-124168889D01*
X150507815Y-124460000D01*
X150536487Y-124751111D01*
X150621401Y-125031034D01*
X150759294Y-125289014D01*
X150944866Y-125515134D01*
X150974687Y-125539607D01*
X150905820Y-125560498D01*
X150795506Y-125619463D01*
X150698815Y-125698815D01*
X150619463Y-125795506D01*
X150560498Y-125905820D01*
X150524188Y-126025518D01*
X150511928Y-126150000D01*
X150515000Y-126714250D01*
X150673750Y-126873000D01*
X151873000Y-126873000D01*
X151873000Y-126853000D01*
X152127000Y-126853000D01*
X152127000Y-126873000D01*
X153326250Y-126873000D01*
X153485000Y-126714250D01*
X153488072Y-126150000D01*
X153475812Y-126025518D01*
X153439502Y-125905820D01*
X153380537Y-125795506D01*
X153301185Y-125698815D01*
X153204494Y-125619463D01*
X153094180Y-125560498D01*
X153025313Y-125539607D01*
X153055134Y-125515134D01*
X153240706Y-125289014D01*
X153378599Y-125031034D01*
X153463513Y-124751111D01*
X153492185Y-124460000D01*
X153463513Y-124168889D01*
X153378599Y-123888966D01*
X153240706Y-123630986D01*
X153055134Y-123404866D01*
X152829014Y-123219294D01*
X152774209Y-123190000D01*
X152829014Y-123160706D01*
X153055134Y-122975134D01*
X153240706Y-122749014D01*
X153378599Y-122491034D01*
X153463513Y-122211111D01*
X153492185Y-121920000D01*
X153463513Y-121628889D01*
X153378599Y-121348966D01*
X153240706Y-121090986D01*
X153055134Y-120864866D01*
X152829014Y-120679294D01*
X152792917Y-120660000D01*
X154340001Y-120660000D01*
X154340000Y-169340000D01*
X128234802Y-169340000D01*
X129039802Y-168535000D01*
X129101939Y-168535000D01*
X129301898Y-168495226D01*
X129490256Y-168417205D01*
X129659774Y-168303937D01*
X129803937Y-168159774D01*
X129917205Y-167990256D01*
X129972446Y-167856891D01*
X130478519Y-167856891D01*
X130575843Y-168131252D01*
X130724822Y-168381355D01*
X130919731Y-168597588D01*
X131153080Y-168771641D01*
X131415901Y-168896825D01*
X131563110Y-168941476D01*
X131793000Y-168820155D01*
X131793000Y-167627000D01*
X130599186Y-167627000D01*
X130478519Y-167856891D01*
X129972446Y-167856891D01*
X129995226Y-167801898D01*
X130035000Y-167601939D01*
X130035000Y-167398061D01*
X129995226Y-167198102D01*
X129972447Y-167143109D01*
X130478519Y-167143109D01*
X130599186Y-167373000D01*
X131793000Y-167373000D01*
X131793000Y-166179845D01*
X132047000Y-166179845D01*
X132047000Y-167373000D01*
X132067000Y-167373000D01*
X132067000Y-167627000D01*
X132047000Y-167627000D01*
X132047000Y-168820155D01*
X132276890Y-168941476D01*
X132424099Y-168896825D01*
X132686920Y-168771641D01*
X132920269Y-168597588D01*
X133115178Y-168381355D01*
X133184799Y-168264477D01*
X133219294Y-168329014D01*
X133404866Y-168555134D01*
X133630986Y-168740706D01*
X133888966Y-168878599D01*
X134168889Y-168963513D01*
X134387050Y-168985000D01*
X134532950Y-168985000D01*
X134751111Y-168963513D01*
X135031034Y-168878599D01*
X135289014Y-168740706D01*
X135515134Y-168555134D01*
X135539607Y-168525313D01*
X135560498Y-168594180D01*
X135619463Y-168704494D01*
X135698815Y-168801185D01*
X135795506Y-168880537D01*
X135905820Y-168939502D01*
X136025518Y-168975812D01*
X136150000Y-168988072D01*
X137850000Y-168988072D01*
X137974482Y-168975812D01*
X138094180Y-168939502D01*
X138204494Y-168880537D01*
X138301185Y-168801185D01*
X138380537Y-168704494D01*
X138439502Y-168594180D01*
X138475812Y-168474482D01*
X138488072Y-168350000D01*
X138488072Y-166650000D01*
X138478410Y-166551891D01*
X150558524Y-166551891D01*
X150603175Y-166699100D01*
X150728359Y-166961921D01*
X150902412Y-167195270D01*
X151118645Y-167390179D01*
X151368748Y-167539158D01*
X151643109Y-167636482D01*
X151873000Y-167515815D01*
X151873000Y-166322001D01*
X152127000Y-166322001D01*
X152127000Y-167515815D01*
X152356891Y-167636482D01*
X152631252Y-167539158D01*
X152881355Y-167390179D01*
X153097588Y-167195270D01*
X153271641Y-166961921D01*
X153396825Y-166699100D01*
X153441476Y-166551891D01*
X153320155Y-166322001D01*
X152127000Y-166322001D01*
X151873000Y-166322001D01*
X150679845Y-166322001D01*
X150558524Y-166551891D01*
X138478410Y-166551891D01*
X138475812Y-166525518D01*
X138439502Y-166405820D01*
X138380537Y-166295506D01*
X138301185Y-166198815D01*
X138204494Y-166119463D01*
X138094180Y-166060498D01*
X137974482Y-166024188D01*
X137850000Y-166011928D01*
X136150000Y-166011928D01*
X136025518Y-166024188D01*
X135905820Y-166060498D01*
X135795506Y-166119463D01*
X135698815Y-166198815D01*
X135619463Y-166295506D01*
X135560498Y-166405820D01*
X135539607Y-166474687D01*
X135515134Y-166444866D01*
X135289014Y-166259294D01*
X135031034Y-166121401D01*
X134751111Y-166036487D01*
X134532950Y-166015000D01*
X134387050Y-166015000D01*
X134168889Y-166036487D01*
X133888966Y-166121401D01*
X133630986Y-166259294D01*
X133404866Y-166444866D01*
X133219294Y-166670986D01*
X133184799Y-166735523D01*
X133115178Y-166618645D01*
X132920269Y-166402412D01*
X132686920Y-166228359D01*
X132424099Y-166103175D01*
X132276890Y-166058524D01*
X132047000Y-166179845D01*
X131793000Y-166179845D01*
X131563110Y-166058524D01*
X131415901Y-166103175D01*
X131153080Y-166228359D01*
X130919731Y-166402412D01*
X130724822Y-166618645D01*
X130575843Y-166868748D01*
X130478519Y-167143109D01*
X129972447Y-167143109D01*
X129917205Y-167009744D01*
X129803937Y-166840226D01*
X129659774Y-166696063D01*
X129490256Y-166582795D01*
X129301898Y-166504774D01*
X129101939Y-166465000D01*
X128898061Y-166465000D01*
X128698102Y-166504774D01*
X128509744Y-166582795D01*
X128340226Y-166696063D01*
X128196063Y-166840226D01*
X128082795Y-167009744D01*
X128004774Y-167198102D01*
X127965000Y-167398061D01*
X127965000Y-167460198D01*
X127488072Y-167937126D01*
X127488072Y-166650000D01*
X127475812Y-166525518D01*
X127439502Y-166405820D01*
X127380537Y-166295506D01*
X127301185Y-166198815D01*
X127204494Y-166119463D01*
X127094180Y-166060498D01*
X126974482Y-166024188D01*
X126850000Y-166011928D01*
X125150000Y-166011928D01*
X125025518Y-166024188D01*
X124905820Y-166060498D01*
X124795506Y-166119463D01*
X124698815Y-166198815D01*
X124619463Y-166295506D01*
X124560498Y-166405820D01*
X124539607Y-166474687D01*
X124515134Y-166444866D01*
X124289014Y-166259294D01*
X124031034Y-166121401D01*
X123751111Y-166036487D01*
X123532950Y-166015000D01*
X123387050Y-166015000D01*
X123168889Y-166036487D01*
X122888966Y-166121401D01*
X122630986Y-166259294D01*
X122404866Y-166444866D01*
X122219294Y-166670986D01*
X122184799Y-166735523D01*
X122115178Y-166618645D01*
X121920269Y-166402412D01*
X121686920Y-166228359D01*
X121424099Y-166103175D01*
X121276890Y-166058524D01*
X121047002Y-166179844D01*
X121047002Y-166124210D01*
X123286211Y-163885001D01*
X132457677Y-163885001D01*
X132494999Y-163888677D01*
X132532321Y-163885001D01*
X132532332Y-163885001D01*
X132643985Y-163874004D01*
X132787246Y-163830547D01*
X132919275Y-163759975D01*
X133035000Y-163665002D01*
X133058803Y-163635999D01*
X133294094Y-163400708D01*
X133338691Y-163414236D01*
X133549508Y-163435000D01*
X133690492Y-163435000D01*
X133901309Y-163414236D01*
X134171808Y-163332182D01*
X134421101Y-163198932D01*
X134639608Y-163019608D01*
X134818932Y-162801101D01*
X134890000Y-162668142D01*
X134961068Y-162801101D01*
X135140392Y-163019608D01*
X135358899Y-163198932D01*
X135608192Y-163332182D01*
X135878691Y-163414236D01*
X136089508Y-163435000D01*
X136230492Y-163435000D01*
X136441309Y-163414236D01*
X136711808Y-163332182D01*
X136961101Y-163198932D01*
X137179608Y-163019608D01*
X137358932Y-162801101D01*
X137430000Y-162668142D01*
X137501068Y-162801101D01*
X137680392Y-163019608D01*
X137898899Y-163198932D01*
X138148192Y-163332182D01*
X138418691Y-163414236D01*
X138629508Y-163435000D01*
X138770492Y-163435000D01*
X138981309Y-163414236D01*
X139251808Y-163332182D01*
X139501101Y-163198932D01*
X139719608Y-163019608D01*
X139898932Y-162801101D01*
X139970000Y-162668142D01*
X140041068Y-162801101D01*
X140220392Y-163019608D01*
X140438899Y-163198932D01*
X140688192Y-163332182D01*
X140958691Y-163414236D01*
X141169508Y-163435000D01*
X141310492Y-163435000D01*
X141521309Y-163414236D01*
X141791808Y-163332182D01*
X142041101Y-163198932D01*
X142259608Y-163019608D01*
X142438932Y-162801101D01*
X142512579Y-162663318D01*
X142627615Y-162855131D01*
X142816586Y-163063519D01*
X143042580Y-163231037D01*
X143296913Y-163351246D01*
X143430961Y-163391904D01*
X143653000Y-163269915D01*
X143653000Y-162127000D01*
X143907000Y-162127000D01*
X143907000Y-163269915D01*
X144129039Y-163391904D01*
X144263087Y-163351246D01*
X144517420Y-163231037D01*
X144743414Y-163063519D01*
X144932385Y-162855131D01*
X145077070Y-162613881D01*
X145171909Y-162349040D01*
X145050624Y-162127000D01*
X143907000Y-162127000D01*
X143653000Y-162127000D01*
X143633000Y-162127000D01*
X143633000Y-161873000D01*
X143653000Y-161873000D01*
X143653000Y-160730085D01*
X143907000Y-160730085D01*
X143907000Y-161873000D01*
X145050624Y-161873000D01*
X145171909Y-161650960D01*
X145077070Y-161386119D01*
X144932385Y-161144869D01*
X144743414Y-160936481D01*
X144517420Y-160768963D01*
X144263087Y-160648754D01*
X144129039Y-160608096D01*
X143907000Y-160730085D01*
X143653000Y-160730085D01*
X143430961Y-160608096D01*
X143296913Y-160648754D01*
X143042580Y-160768963D01*
X142816586Y-160936481D01*
X142627615Y-161144869D01*
X142512579Y-161336682D01*
X142438932Y-161198899D01*
X142259608Y-160980392D01*
X142041101Y-160801068D01*
X141791808Y-160667818D01*
X141521309Y-160585764D01*
X141310492Y-160565000D01*
X141169508Y-160565000D01*
X140958691Y-160585764D01*
X140688192Y-160667818D01*
X140438899Y-160801068D01*
X140220392Y-160980392D01*
X140041068Y-161198899D01*
X139970000Y-161331858D01*
X139898932Y-161198899D01*
X139719608Y-160980392D01*
X139501101Y-160801068D01*
X139251808Y-160667818D01*
X138981309Y-160585764D01*
X138770492Y-160565000D01*
X138629508Y-160565000D01*
X138418691Y-160585764D01*
X138148192Y-160667818D01*
X137898899Y-160801068D01*
X137680392Y-160980392D01*
X137501068Y-161198899D01*
X137430000Y-161331858D01*
X137358932Y-161198899D01*
X137179608Y-160980392D01*
X136961101Y-160801068D01*
X136711808Y-160667818D01*
X136441309Y-160585764D01*
X136230492Y-160565000D01*
X136089508Y-160565000D01*
X135878691Y-160585764D01*
X135608192Y-160667818D01*
X135358899Y-160801068D01*
X135140392Y-160980392D01*
X134961068Y-161198899D01*
X134890000Y-161331858D01*
X134818932Y-161198899D01*
X134639608Y-160980392D01*
X134421101Y-160801068D01*
X134171808Y-160667818D01*
X133901309Y-160585764D01*
X133690492Y-160565000D01*
X133549508Y-160565000D01*
X133338691Y-160585764D01*
X133068192Y-160667818D01*
X132818899Y-160801068D01*
X132600392Y-160980392D01*
X132421068Y-161198899D01*
X132350000Y-161331858D01*
X132278932Y-161198899D01*
X132099608Y-160980392D01*
X131881101Y-160801068D01*
X131631808Y-160667818D01*
X131361309Y-160585764D01*
X131150492Y-160565000D01*
X131009508Y-160565000D01*
X130798691Y-160585764D01*
X130528192Y-160667818D01*
X130278899Y-160801068D01*
X130060392Y-160980392D01*
X129881068Y-161198899D01*
X129810000Y-161331858D01*
X129738932Y-161198899D01*
X129559608Y-160980392D01*
X129341101Y-160801068D01*
X129091808Y-160667818D01*
X128821309Y-160585764D01*
X128610492Y-160565000D01*
X128469508Y-160565000D01*
X128258691Y-160585764D01*
X127988192Y-160667818D01*
X127738899Y-160801068D01*
X127520392Y-160980392D01*
X127427581Y-161093482D01*
X127425812Y-161075518D01*
X127389502Y-160955820D01*
X127330537Y-160845506D01*
X127251185Y-160748815D01*
X127154494Y-160669463D01*
X127044180Y-160610498D01*
X126924482Y-160574188D01*
X126800000Y-160561928D01*
X125972874Y-160561928D01*
X133294095Y-153240708D01*
X133338691Y-153254236D01*
X133549508Y-153275000D01*
X133690492Y-153275000D01*
X133901309Y-153254236D01*
X134171808Y-153172182D01*
X134421101Y-153038932D01*
X134639608Y-152859608D01*
X134818932Y-152641101D01*
X134890000Y-152508142D01*
X134961068Y-152641101D01*
X135140392Y-152859608D01*
X135358899Y-153038932D01*
X135608192Y-153172182D01*
X135878691Y-153254236D01*
X136089508Y-153275000D01*
X136230492Y-153275000D01*
X136441309Y-153254236D01*
X136711808Y-153172182D01*
X136961101Y-153038932D01*
X137179608Y-152859608D01*
X137358932Y-152641101D01*
X137430000Y-152508142D01*
X137501068Y-152641101D01*
X137680392Y-152859608D01*
X137898899Y-153038932D01*
X138148192Y-153172182D01*
X138418691Y-153254236D01*
X138629508Y-153275000D01*
X138770492Y-153275000D01*
X138981309Y-153254236D01*
X139251808Y-153172182D01*
X139501101Y-153038932D01*
X139719608Y-152859608D01*
X139898932Y-152641101D01*
X139970000Y-152508142D01*
X140041068Y-152641101D01*
X140220392Y-152859608D01*
X140438899Y-153038932D01*
X140688192Y-153172182D01*
X140958691Y-153254236D01*
X141169508Y-153275000D01*
X141310492Y-153275000D01*
X141521309Y-153254236D01*
X141791808Y-153172182D01*
X142041101Y-153038932D01*
X142259608Y-152859608D01*
X142438932Y-152641101D01*
X142510000Y-152508142D01*
X142581068Y-152641101D01*
X142760392Y-152859608D01*
X142978899Y-153038932D01*
X143228192Y-153172182D01*
X143498691Y-153254236D01*
X143709508Y-153275000D01*
X143850492Y-153275000D01*
X144061309Y-153254236D01*
X144331808Y-153172182D01*
X144581101Y-153038932D01*
X144799608Y-152859608D01*
X144978932Y-152641101D01*
X145072062Y-152466867D01*
X150064999Y-157459805D01*
X150065000Y-162442668D01*
X150061323Y-162480000D01*
X150065000Y-162517333D01*
X150075997Y-162628986D01*
X150084196Y-162656015D01*
X150119453Y-162772246D01*
X150190025Y-162904276D01*
X150261196Y-162990997D01*
X150284999Y-163020001D01*
X150313997Y-163043799D01*
X150559203Y-163289005D01*
X150536487Y-163363890D01*
X150507815Y-163655001D01*
X150536487Y-163946112D01*
X150621401Y-164226035D01*
X150759294Y-164484015D01*
X150944866Y-164710135D01*
X151170986Y-164895707D01*
X151235523Y-164930202D01*
X151118645Y-164999823D01*
X150902412Y-165194732D01*
X150728359Y-165428081D01*
X150603175Y-165690902D01*
X150558524Y-165838111D01*
X150679845Y-166068001D01*
X151873000Y-166068001D01*
X151873000Y-166048001D01*
X152127000Y-166048001D01*
X152127000Y-166068001D01*
X153320155Y-166068001D01*
X153441476Y-165838111D01*
X153396825Y-165690902D01*
X153271641Y-165428081D01*
X153097588Y-165194732D01*
X152881355Y-164999823D01*
X152764477Y-164930202D01*
X152829014Y-164895707D01*
X153055134Y-164710135D01*
X153240706Y-164484015D01*
X153378599Y-164226035D01*
X153463513Y-163946112D01*
X153492185Y-163655001D01*
X153463513Y-163363890D01*
X153378599Y-163083967D01*
X153240706Y-162825987D01*
X153055134Y-162599867D01*
X152829014Y-162414295D01*
X152774209Y-162385001D01*
X152829014Y-162355707D01*
X153055134Y-162170135D01*
X153240706Y-161944015D01*
X153378599Y-161686035D01*
X153463513Y-161406112D01*
X153492185Y-161115001D01*
X153463513Y-160823890D01*
X153378599Y-160543967D01*
X153240706Y-160285987D01*
X153055134Y-160059867D01*
X152829014Y-159874295D01*
X152774209Y-159845001D01*
X152829014Y-159815707D01*
X153055134Y-159630135D01*
X153240706Y-159404015D01*
X153378599Y-159146035D01*
X153463513Y-158866112D01*
X153492185Y-158575001D01*
X153463513Y-158283890D01*
X153378599Y-158003967D01*
X153240706Y-157745987D01*
X153055134Y-157519867D01*
X153025313Y-157495394D01*
X153094180Y-157474503D01*
X153204494Y-157415538D01*
X153301185Y-157336186D01*
X153380537Y-157239495D01*
X153439502Y-157129181D01*
X153475812Y-157009483D01*
X153488072Y-156885001D01*
X153485000Y-156320751D01*
X153326250Y-156162001D01*
X152127000Y-156162001D01*
X152127000Y-156182001D01*
X151873000Y-156182001D01*
X151873000Y-156162001D01*
X151853000Y-156162001D01*
X151853000Y-155908001D01*
X151873000Y-155908001D01*
X151873000Y-154708751D01*
X152127000Y-154708751D01*
X152127000Y-155908001D01*
X153326250Y-155908001D01*
X153485000Y-155749251D01*
X153488072Y-155185001D01*
X153475812Y-155060519D01*
X153439502Y-154940821D01*
X153380537Y-154830507D01*
X153301185Y-154733816D01*
X153204494Y-154654464D01*
X153094180Y-154595499D01*
X152974482Y-154559189D01*
X152850000Y-154546929D01*
X152285750Y-154550001D01*
X152127000Y-154708751D01*
X151873000Y-154708751D01*
X151714250Y-154550001D01*
X151150000Y-154546929D01*
X151025518Y-154559189D01*
X150905820Y-154595499D01*
X150795506Y-154654464D01*
X150698815Y-154733816D01*
X150619463Y-154830507D01*
X150560498Y-154940821D01*
X150524188Y-155060519D01*
X150511928Y-155185001D01*
X150515000Y-155749251D01*
X150673748Y-155907999D01*
X150662799Y-155907999D01*
X145594798Y-150840000D01*
X150722405Y-150840000D01*
X150759294Y-150909014D01*
X150944866Y-151135134D01*
X151170986Y-151320706D01*
X151428966Y-151458599D01*
X151708889Y-151543513D01*
X151927050Y-151565000D01*
X152072950Y-151565000D01*
X152291111Y-151543513D01*
X152571034Y-151458599D01*
X152829014Y-151320706D01*
X153055134Y-151135134D01*
X153240706Y-150909014D01*
X153378599Y-150651034D01*
X153463513Y-150371111D01*
X153492185Y-150080000D01*
X153463513Y-149788889D01*
X153378599Y-149508966D01*
X153240706Y-149250986D01*
X153055134Y-149024866D01*
X152829014Y-148839294D01*
X152764477Y-148804799D01*
X152881355Y-148735178D01*
X153097588Y-148540269D01*
X153271641Y-148306920D01*
X153396825Y-148044099D01*
X153441476Y-147896890D01*
X153320155Y-147667000D01*
X152127000Y-147667000D01*
X152127000Y-147687000D01*
X151873000Y-147687000D01*
X151873000Y-147667000D01*
X150679845Y-147667000D01*
X150558524Y-147896890D01*
X150603175Y-148044099D01*
X150728359Y-148306920D01*
X150902412Y-148540269D01*
X151118645Y-148735178D01*
X151235523Y-148804799D01*
X151170986Y-148839294D01*
X150944866Y-149024866D01*
X150759294Y-149250986D01*
X150722405Y-149320000D01*
X133151804Y-149320000D01*
X127666804Y-143835000D01*
X127680732Y-143835000D01*
X128035250Y-143764482D01*
X128369199Y-143626156D01*
X128669744Y-143425338D01*
X128925338Y-143169744D01*
X129126156Y-142869199D01*
X129264482Y-142535250D01*
X129335000Y-142180732D01*
X129335000Y-141819268D01*
X129264482Y-141464750D01*
X129126156Y-141130801D01*
X128925338Y-140830256D01*
X128669744Y-140574662D01*
X128369199Y-140373844D01*
X128035250Y-140235518D01*
X127680732Y-140165000D01*
X127319268Y-140165000D01*
X126964750Y-140235518D01*
X126630801Y-140373844D01*
X126330256Y-140574662D01*
X126074662Y-140830256D01*
X125873844Y-141130801D01*
X125735518Y-141464750D01*
X125665000Y-141819268D01*
X125665000Y-141833197D01*
X121129865Y-137298062D01*
X122965000Y-137298062D01*
X122965000Y-137501940D01*
X123004774Y-137701899D01*
X123082795Y-137890257D01*
X123196063Y-138059775D01*
X123340226Y-138203938D01*
X123509744Y-138317206D01*
X123667721Y-138382643D01*
X123582795Y-138509744D01*
X123504774Y-138698102D01*
X123465000Y-138898061D01*
X123465000Y-139101939D01*
X123504774Y-139301898D01*
X123582795Y-139490256D01*
X123696063Y-139659774D01*
X123840226Y-139803937D01*
X124009744Y-139917205D01*
X124198102Y-139995226D01*
X124398061Y-140035000D01*
X124601939Y-140035000D01*
X124801898Y-139995226D01*
X124990256Y-139917205D01*
X125159774Y-139803937D01*
X125303937Y-139659774D01*
X125417205Y-139490256D01*
X125495226Y-139301898D01*
X125535000Y-139101939D01*
X125535000Y-138898061D01*
X125495226Y-138698102D01*
X125417205Y-138509744D01*
X125303937Y-138340226D01*
X125260000Y-138296289D01*
X125260000Y-137937326D01*
X125263676Y-137900001D01*
X125260000Y-137862676D01*
X125260000Y-137862668D01*
X125249003Y-137751015D01*
X125205546Y-137607754D01*
X125134974Y-137475725D01*
X125040001Y-137360000D01*
X125035000Y-137355896D01*
X125035000Y-137298062D01*
X124995226Y-137098103D01*
X124917205Y-136909745D01*
X124803937Y-136740227D01*
X124659774Y-136596064D01*
X124490256Y-136482796D01*
X124301898Y-136404775D01*
X124101939Y-136365001D01*
X123898061Y-136365001D01*
X123698102Y-136404775D01*
X123509744Y-136482796D01*
X123340226Y-136596064D01*
X123196063Y-136740227D01*
X123082795Y-136909745D01*
X123004774Y-137098103D01*
X122965000Y-137298062D01*
X121129865Y-137298062D01*
X120295805Y-136464002D01*
X120272002Y-136434998D01*
X120249627Y-136416635D01*
X120288184Y-136426300D01*
X120570512Y-136440217D01*
X120850130Y-136398787D01*
X121116292Y-136303603D01*
X121241514Y-136236671D01*
X121313097Y-135992702D01*
X120500000Y-135179605D01*
X119686903Y-135992702D01*
X119751615Y-136213255D01*
X119732001Y-136211323D01*
X119694679Y-136214999D01*
X118280882Y-136214999D01*
X118330537Y-136154494D01*
X118389502Y-136044180D01*
X118425812Y-135924482D01*
X118438072Y-135800000D01*
X118438072Y-135070512D01*
X119059783Y-135070512D01*
X119101213Y-135350130D01*
X119196397Y-135616292D01*
X119263329Y-135741514D01*
X119507298Y-135813097D01*
X120320395Y-135000000D01*
X120679605Y-135000000D01*
X121492702Y-135813097D01*
X121736671Y-135741514D01*
X121857571Y-135486004D01*
X121926300Y-135211816D01*
X121940217Y-134929488D01*
X121898787Y-134649870D01*
X121803603Y-134383708D01*
X121736671Y-134258486D01*
X121492702Y-134186903D01*
X120679605Y-135000000D01*
X120320395Y-135000000D01*
X119507298Y-134186903D01*
X119263329Y-134258486D01*
X119142429Y-134513996D01*
X119073700Y-134788184D01*
X119059783Y-135070512D01*
X118438072Y-135070512D01*
X118438072Y-134200000D01*
X118425812Y-134075518D01*
X118405118Y-134007298D01*
X119686903Y-134007298D01*
X120500000Y-134820395D01*
X121313097Y-134007298D01*
X121241514Y-133763329D01*
X120986004Y-133642429D01*
X120711816Y-133573700D01*
X120429488Y-133559783D01*
X120149870Y-133601213D01*
X119883708Y-133696397D01*
X119758486Y-133763329D01*
X119686903Y-134007298D01*
X118405118Y-134007298D01*
X118389502Y-133955820D01*
X118330537Y-133845506D01*
X118251185Y-133748815D01*
X118154494Y-133669463D01*
X118044180Y-133610498D01*
X117924482Y-133574188D01*
X117800000Y-133561928D01*
X117760000Y-133561928D01*
X117760000Y-133007538D01*
X117898061Y-133035000D01*
X118101939Y-133035000D01*
X118301898Y-132995226D01*
X118490256Y-132917205D01*
X118659774Y-132803937D01*
X118803937Y-132659774D01*
X118917205Y-132490256D01*
X118995226Y-132301898D01*
X119035000Y-132101939D01*
X119035000Y-132039801D01*
X119314802Y-131760000D01*
X121296289Y-131760000D01*
X121340226Y-131803937D01*
X121509744Y-131917205D01*
X121698102Y-131995226D01*
X121898061Y-132035000D01*
X122101939Y-132035000D01*
X122301898Y-131995226D01*
X122490256Y-131917205D01*
X122659774Y-131803937D01*
X122803937Y-131659774D01*
X122917205Y-131490256D01*
X122995226Y-131301898D01*
X123035000Y-131101939D01*
X123035000Y-130898061D01*
X122995226Y-130698102D01*
X122917205Y-130509744D01*
X122803937Y-130340226D01*
X122659774Y-130196063D01*
X122490256Y-130082795D01*
X122301898Y-130004774D01*
X122101939Y-129965000D01*
X121898061Y-129965000D01*
X121698102Y-130004774D01*
X121509744Y-130082795D01*
X121340226Y-130196063D01*
X121296289Y-130240000D01*
X119037333Y-130240000D01*
X119000000Y-130236323D01*
X118962667Y-130240000D01*
X118851014Y-130250997D01*
X118707753Y-130294454D01*
X118575724Y-130365026D01*
X118459999Y-130459999D01*
X118436201Y-130488997D01*
X117960199Y-130965000D01*
X117898061Y-130965000D01*
X117760000Y-130992462D01*
X117760000Y-129152239D01*
X117957748Y-129349987D01*
X118225537Y-129528918D01*
X118523088Y-129652168D01*
X118838967Y-129715000D01*
X119161033Y-129715000D01*
X119476912Y-129652168D01*
X119774463Y-129528918D01*
X120042252Y-129349987D01*
X120269987Y-129122252D01*
X120448918Y-128854463D01*
X120572168Y-128556912D01*
X120635000Y-128241033D01*
X120635000Y-127918967D01*
X120572168Y-127603088D01*
X120448918Y-127305537D01*
X120269987Y-127037748D01*
X120042252Y-126810013D01*
X119774463Y-126631082D01*
X119476912Y-126507832D01*
X119161033Y-126445000D01*
X118838967Y-126445000D01*
X118523088Y-126507832D01*
X118225537Y-126631082D01*
X117957748Y-126810013D01*
X117760000Y-127007761D01*
X117760000Y-124072239D01*
X117957748Y-124269987D01*
X118225537Y-124448918D01*
X118523088Y-124572168D01*
X118838967Y-124635000D01*
X119161033Y-124635000D01*
X119476912Y-124572168D01*
X119491376Y-124566177D01*
X126740000Y-131814802D01*
X126740001Y-134561928D01*
X126200000Y-134561928D01*
X126075518Y-134574188D01*
X125955820Y-134610498D01*
X125845506Y-134669463D01*
X125748815Y-134748815D01*
X125669463Y-134845506D01*
X125610498Y-134955820D01*
X125574188Y-135075518D01*
X125561928Y-135200000D01*
X125561928Y-137800000D01*
X125574188Y-137924482D01*
X125610498Y-138044180D01*
X125669463Y-138154494D01*
X125748815Y-138251185D01*
X125845506Y-138330537D01*
X125955820Y-138389502D01*
X126075518Y-138425812D01*
X126200000Y-138438072D01*
X128800000Y-138438072D01*
X128924482Y-138425812D01*
X129044180Y-138389502D01*
X129154494Y-138330537D01*
X129251185Y-138251185D01*
X129330537Y-138154494D01*
X129389502Y-138044180D01*
X129425812Y-137924482D01*
X129438072Y-137800000D01*
X129438072Y-135200000D01*
X129425812Y-135075518D01*
X129389502Y-134955820D01*
X129330537Y-134845506D01*
X129251185Y-134748815D01*
X129154494Y-134669463D01*
X129044180Y-134610498D01*
X128924482Y-134574188D01*
X128800000Y-134561928D01*
X128260000Y-134561928D01*
X128260000Y-132698391D01*
X132740001Y-137178393D01*
X132740000Y-140296289D01*
X132696063Y-140340226D01*
X132582795Y-140509744D01*
X132504774Y-140698102D01*
X132465000Y-140898061D01*
X132465000Y-141101939D01*
X132504774Y-141301898D01*
X132582795Y-141490256D01*
X132696063Y-141659774D01*
X132840226Y-141803937D01*
X133009744Y-141917205D01*
X133198102Y-141995226D01*
X133398061Y-142035000D01*
X133601939Y-142035000D01*
X133801898Y-141995226D01*
X133990256Y-141917205D01*
X134159774Y-141803937D01*
X134303937Y-141659774D01*
X134417205Y-141490256D01*
X134495226Y-141301898D01*
X134535000Y-141101939D01*
X134535000Y-140898061D01*
X134495226Y-140698102D01*
X134417205Y-140509744D01*
X134303937Y-140340226D01*
X134260000Y-140296289D01*
X134260000Y-136900923D01*
X134263677Y-136863590D01*
X134249003Y-136714604D01*
X134205546Y-136571343D01*
X134134974Y-136439314D01*
X134063799Y-136352587D01*
X134040001Y-136323589D01*
X134011003Y-136299791D01*
X128494999Y-130783788D01*
X128494999Y-130259800D01*
X137464991Y-139229793D01*
X137464992Y-142447659D01*
X137461315Y-142484991D01*
X137475989Y-142633976D01*
X137519445Y-142777237D01*
X137590017Y-142909267D01*
X137642227Y-142972884D01*
X137684991Y-143024992D01*
X137713989Y-143048790D01*
X141018580Y-146353382D01*
X140931552Y-146640277D01*
X140896122Y-147000000D01*
X140931552Y-147359723D01*
X141036479Y-147705622D01*
X141206871Y-148024404D01*
X141436181Y-148303819D01*
X141715596Y-148533129D01*
X142034378Y-148703521D01*
X142380277Y-148808448D01*
X142649861Y-148835000D01*
X142830139Y-148835000D01*
X143099723Y-148808448D01*
X143445622Y-148703521D01*
X143764404Y-148533129D01*
X144043819Y-148303819D01*
X144273129Y-148024404D01*
X144443521Y-147705622D01*
X144548448Y-147359723D01*
X144583878Y-147000000D01*
X144548448Y-146640277D01*
X144443521Y-146294378D01*
X144273129Y-145975596D01*
X144043819Y-145696181D01*
X143764404Y-145466871D01*
X143445622Y-145296479D01*
X143099723Y-145191552D01*
X142830139Y-145165000D01*
X142649861Y-145165000D01*
X142380277Y-145191552D01*
X142093382Y-145278580D01*
X140964802Y-144150000D01*
X150511928Y-144150000D01*
X150511928Y-145850000D01*
X150524188Y-145974482D01*
X150560498Y-146094180D01*
X150619463Y-146204494D01*
X150698815Y-146301185D01*
X150795506Y-146380537D01*
X150905820Y-146439502D01*
X150986466Y-146463966D01*
X150902412Y-146539731D01*
X150728359Y-146773080D01*
X150603175Y-147035901D01*
X150558524Y-147183110D01*
X150679845Y-147413000D01*
X151873000Y-147413000D01*
X151873000Y-147393000D01*
X152127000Y-147393000D01*
X152127000Y-147413000D01*
X153320155Y-147413000D01*
X153441476Y-147183110D01*
X153396825Y-147035901D01*
X153271641Y-146773080D01*
X153097588Y-146539731D01*
X153013534Y-146463966D01*
X153094180Y-146439502D01*
X153204494Y-146380537D01*
X153301185Y-146301185D01*
X153380537Y-146204494D01*
X153439502Y-146094180D01*
X153475812Y-145974482D01*
X153488072Y-145850000D01*
X153488072Y-144150000D01*
X153475812Y-144025518D01*
X153439502Y-143905820D01*
X153380537Y-143795506D01*
X153301185Y-143698815D01*
X153204494Y-143619463D01*
X153094180Y-143560498D01*
X152974482Y-143524188D01*
X152850000Y-143511928D01*
X151150000Y-143511928D01*
X151025518Y-143524188D01*
X150905820Y-143560498D01*
X150795506Y-143619463D01*
X150698815Y-143698815D01*
X150619463Y-143795506D01*
X150560498Y-143905820D01*
X150524188Y-144025518D01*
X150511928Y-144150000D01*
X140964802Y-144150000D01*
X138984991Y-142170190D01*
X138984991Y-142000000D01*
X140896122Y-142000000D01*
X140931552Y-142359723D01*
X141036479Y-142705622D01*
X141206871Y-143024404D01*
X141436181Y-143303819D01*
X141715596Y-143533129D01*
X142034378Y-143703521D01*
X142380277Y-143808448D01*
X142649861Y-143835000D01*
X142830139Y-143835000D01*
X143099723Y-143808448D01*
X143445622Y-143703521D01*
X143764404Y-143533129D01*
X144043819Y-143303819D01*
X144273129Y-143024404D01*
X144443521Y-142705622D01*
X144548448Y-142359723D01*
X144583878Y-142000000D01*
X144548448Y-141640277D01*
X144443521Y-141294378D01*
X144273129Y-140975596D01*
X144043819Y-140696181D01*
X143764404Y-140466871D01*
X143445622Y-140296479D01*
X143099723Y-140191552D01*
X142830139Y-140165000D01*
X142649861Y-140165000D01*
X142380277Y-140191552D01*
X142034378Y-140296479D01*
X141715596Y-140466871D01*
X141436181Y-140696181D01*
X141206871Y-140975596D01*
X141036479Y-141294378D01*
X140931552Y-141640277D01*
X140896122Y-142000000D01*
X138984991Y-142000000D01*
X138984991Y-138952314D01*
X138988667Y-138914991D01*
X138984991Y-138877668D01*
X138984991Y-138877658D01*
X138982267Y-138850000D01*
X150511928Y-138850000D01*
X150524188Y-138974482D01*
X150560498Y-139094180D01*
X150619463Y-139204494D01*
X150698815Y-139301185D01*
X150795506Y-139380537D01*
X150905820Y-139439502D01*
X151025518Y-139475812D01*
X151150000Y-139488072D01*
X151714250Y-139485000D01*
X151873000Y-139326250D01*
X151873000Y-138127000D01*
X152127000Y-138127000D01*
X152127000Y-139326250D01*
X152285750Y-139485000D01*
X152850000Y-139488072D01*
X152974482Y-139475812D01*
X153094180Y-139439502D01*
X153204494Y-139380537D01*
X153301185Y-139301185D01*
X153380537Y-139204494D01*
X153439502Y-139094180D01*
X153475812Y-138974482D01*
X153488072Y-138850000D01*
X153485000Y-138285750D01*
X153326250Y-138127000D01*
X152127000Y-138127000D01*
X151873000Y-138127000D01*
X150673750Y-138127000D01*
X150515000Y-138285750D01*
X150511928Y-138850000D01*
X138982267Y-138850000D01*
X138973994Y-138766005D01*
X138930537Y-138622744D01*
X138877904Y-138524276D01*
X138859965Y-138490714D01*
X138788790Y-138403988D01*
X138764992Y-138374990D01*
X138735995Y-138351193D01*
X137312286Y-136927484D01*
X140852811Y-136927484D01*
X140933358Y-137193028D01*
X141103275Y-137532170D01*
X141336091Y-137831646D01*
X141622858Y-138079948D01*
X141952556Y-138267533D01*
X142312515Y-138387193D01*
X142613000Y-138272082D01*
X142613000Y-136627000D01*
X142867000Y-136627000D01*
X142867000Y-138272082D01*
X143167485Y-138387193D01*
X143527444Y-138267533D01*
X143857142Y-138079948D01*
X144143909Y-137831646D01*
X144376725Y-137532170D01*
X144546642Y-137193028D01*
X144627189Y-136927484D01*
X144511704Y-136627000D01*
X142867000Y-136627000D01*
X142613000Y-136627000D01*
X140968296Y-136627000D01*
X140852811Y-136927484D01*
X137312286Y-136927484D01*
X136457318Y-136072516D01*
X140852811Y-136072516D01*
X140968296Y-136373000D01*
X142613000Y-136373000D01*
X142613000Y-134727918D01*
X142867000Y-134727918D01*
X142867000Y-136373000D01*
X144511704Y-136373000D01*
X144627189Y-136072516D01*
X144546642Y-135806972D01*
X144376725Y-135467830D01*
X144143909Y-135168354D01*
X143857142Y-134920052D01*
X143527444Y-134732467D01*
X143167485Y-134612807D01*
X142867000Y-134727918D01*
X142613000Y-134727918D01*
X142312515Y-134612807D01*
X141952556Y-134732467D01*
X141622858Y-134920052D01*
X141336091Y-135168354D01*
X141103275Y-135467830D01*
X140933358Y-135806972D01*
X140852811Y-136072516D01*
X136457318Y-136072516D01*
X133304802Y-132920000D01*
X150507815Y-132920000D01*
X150536487Y-133211111D01*
X150621401Y-133491034D01*
X150759294Y-133749014D01*
X150944866Y-133975134D01*
X151170986Y-134160706D01*
X151225791Y-134190000D01*
X151170986Y-134219294D01*
X150944866Y-134404866D01*
X150759294Y-134630986D01*
X150621401Y-134888966D01*
X150536487Y-135168889D01*
X150507815Y-135460000D01*
X150536487Y-135751111D01*
X150621401Y-136031034D01*
X150759294Y-136289014D01*
X150944866Y-136515134D01*
X150974687Y-136539607D01*
X150905820Y-136560498D01*
X150795506Y-136619463D01*
X150698815Y-136698815D01*
X150619463Y-136795506D01*
X150560498Y-136905820D01*
X150524188Y-137025518D01*
X150511928Y-137150000D01*
X150515000Y-137714250D01*
X150673750Y-137873000D01*
X151873000Y-137873000D01*
X151873000Y-137853000D01*
X152127000Y-137853000D01*
X152127000Y-137873000D01*
X153326250Y-137873000D01*
X153485000Y-137714250D01*
X153488072Y-137150000D01*
X153475812Y-137025518D01*
X153439502Y-136905820D01*
X153380537Y-136795506D01*
X153301185Y-136698815D01*
X153204494Y-136619463D01*
X153094180Y-136560498D01*
X153025313Y-136539607D01*
X153055134Y-136515134D01*
X153240706Y-136289014D01*
X153378599Y-136031034D01*
X153463513Y-135751111D01*
X153492185Y-135460000D01*
X153463513Y-135168889D01*
X153378599Y-134888966D01*
X153240706Y-134630986D01*
X153055134Y-134404866D01*
X152829014Y-134219294D01*
X152774209Y-134190000D01*
X152829014Y-134160706D01*
X153055134Y-133975134D01*
X153240706Y-133749014D01*
X153378599Y-133491034D01*
X153463513Y-133211111D01*
X153492185Y-132920000D01*
X153463513Y-132628889D01*
X153378599Y-132348966D01*
X153240706Y-132090986D01*
X153055134Y-131864866D01*
X152829014Y-131679294D01*
X152571034Y-131541401D01*
X152291111Y-131456487D01*
X152072950Y-131435000D01*
X151927050Y-131435000D01*
X151708889Y-131456487D01*
X151428966Y-131541401D01*
X151170986Y-131679294D01*
X150944866Y-131864866D01*
X150759294Y-132090986D01*
X150621401Y-132348966D01*
X150536487Y-132628889D01*
X150507815Y-132920000D01*
X133304802Y-132920000D01*
X130269882Y-129885081D01*
X130311185Y-129851185D01*
X130390537Y-129754494D01*
X130449502Y-129644180D01*
X130455056Y-129625873D01*
X130521495Y-129692312D01*
X130772905Y-129860299D01*
X131052257Y-129976011D01*
X131348816Y-130035000D01*
X131651184Y-130035000D01*
X131947743Y-129976011D01*
X132227095Y-129860299D01*
X132478505Y-129692312D01*
X132692312Y-129478505D01*
X132860299Y-129227095D01*
X132976011Y-128947743D01*
X133035000Y-128651184D01*
X133035000Y-128348816D01*
X132976011Y-128052257D01*
X132892233Y-127850000D01*
X150511928Y-127850000D01*
X150524188Y-127974482D01*
X150560498Y-128094180D01*
X150619463Y-128204494D01*
X150698815Y-128301185D01*
X150795506Y-128380537D01*
X150905820Y-128439502D01*
X151025518Y-128475812D01*
X151150000Y-128488072D01*
X151714250Y-128485000D01*
X151873000Y-128326250D01*
X151873000Y-127127000D01*
X152127000Y-127127000D01*
X152127000Y-128326250D01*
X152285750Y-128485000D01*
X152850000Y-128488072D01*
X152974482Y-128475812D01*
X153094180Y-128439502D01*
X153204494Y-128380537D01*
X153301185Y-128301185D01*
X153380537Y-128204494D01*
X153439502Y-128094180D01*
X153475812Y-127974482D01*
X153488072Y-127850000D01*
X153485000Y-127285750D01*
X153326250Y-127127000D01*
X152127000Y-127127000D01*
X151873000Y-127127000D01*
X150673750Y-127127000D01*
X150515000Y-127285750D01*
X150511928Y-127850000D01*
X132892233Y-127850000D01*
X132860299Y-127772905D01*
X132692312Y-127521495D01*
X132478505Y-127307688D01*
X132227095Y-127139701D01*
X131947743Y-127023989D01*
X131651184Y-126965000D01*
X131348816Y-126965000D01*
X131052257Y-127023989D01*
X130772905Y-127139701D01*
X130521495Y-127307688D01*
X130455056Y-127374127D01*
X130449502Y-127355820D01*
X130390537Y-127245506D01*
X130311185Y-127148815D01*
X130214494Y-127069463D01*
X130104180Y-127010498D01*
X129984482Y-126974188D01*
X129860000Y-126961928D01*
X129187871Y-126961928D01*
X131264789Y-124885011D01*
X136837667Y-124885011D01*
X136874989Y-124888687D01*
X136912311Y-124885011D01*
X136912322Y-124885011D01*
X137023975Y-124874014D01*
X137167236Y-124830557D01*
X137299265Y-124759985D01*
X137414990Y-124665012D01*
X137438792Y-124636009D01*
X137539801Y-124535000D01*
X137601939Y-124535000D01*
X137801898Y-124495226D01*
X137990256Y-124417205D01*
X138159774Y-124303937D01*
X138303937Y-124159774D01*
X138417205Y-123990256D01*
X138495226Y-123801898D01*
X138535000Y-123601939D01*
X138535000Y-123510124D01*
X138560498Y-123594180D01*
X138619463Y-123704494D01*
X138698815Y-123801185D01*
X138795506Y-123880537D01*
X138905820Y-123939502D01*
X139025518Y-123975812D01*
X139150000Y-123988072D01*
X140850000Y-123988072D01*
X140974482Y-123975812D01*
X141094180Y-123939502D01*
X141204494Y-123880537D01*
X141301185Y-123801185D01*
X141380537Y-123704494D01*
X141439502Y-123594180D01*
X141463966Y-123513534D01*
X141539731Y-123597588D01*
X141773080Y-123771641D01*
X142035901Y-123896825D01*
X142183110Y-123941476D01*
X142413000Y-123820155D01*
X142413000Y-122627000D01*
X142667000Y-122627000D01*
X142667000Y-123820155D01*
X142896890Y-123941476D01*
X143044099Y-123896825D01*
X143306920Y-123771641D01*
X143540269Y-123597588D01*
X143735178Y-123381355D01*
X143884157Y-123131252D01*
X143981481Y-122856891D01*
X143860814Y-122627000D01*
X142667000Y-122627000D01*
X142413000Y-122627000D01*
X142393000Y-122627000D01*
X142393000Y-122373000D01*
X142413000Y-122373000D01*
X142413000Y-121179845D01*
X142667000Y-121179845D01*
X142667000Y-122373000D01*
X143860814Y-122373000D01*
X143981481Y-122143109D01*
X143884157Y-121868748D01*
X143735178Y-121618645D01*
X143540269Y-121402412D01*
X143306920Y-121228359D01*
X143044099Y-121103175D01*
X142896890Y-121058524D01*
X142667000Y-121179845D01*
X142413000Y-121179845D01*
X142183110Y-121058524D01*
X142035901Y-121103175D01*
X141773080Y-121228359D01*
X141539731Y-121402412D01*
X141463966Y-121486466D01*
X141439502Y-121405820D01*
X141380537Y-121295506D01*
X141301185Y-121198815D01*
X141204494Y-121119463D01*
X141094180Y-121060498D01*
X140974482Y-121024188D01*
X140850000Y-121011928D01*
X139150000Y-121011928D01*
X139025518Y-121024188D01*
X138905820Y-121060498D01*
X138795506Y-121119463D01*
X138698815Y-121198815D01*
X138687457Y-121212655D01*
X138288803Y-120814002D01*
X138265000Y-120784998D01*
X138149275Y-120690025D01*
X138093103Y-120660000D01*
X151207083Y-120660000D01*
X151170986Y-120679294D01*
G36*
X121047000Y-167373000D02*
G01*
X121067000Y-167373000D01*
X121067000Y-167627000D01*
X121047000Y-167627000D01*
X121047000Y-168820155D01*
X121276890Y-168941476D01*
X121424099Y-168896825D01*
X121686920Y-168771641D01*
X121920269Y-168597588D01*
X122115178Y-168381355D01*
X122184799Y-168264477D01*
X122219294Y-168329014D01*
X122404866Y-168555134D01*
X122630986Y-168740706D01*
X122888966Y-168878599D01*
X123063420Y-168931519D01*
X123004774Y-169073102D01*
X122965000Y-169273061D01*
X122965000Y-169340000D01*
X117831211Y-169340000D01*
X119544209Y-167627002D01*
X119599185Y-167627002D01*
X119478519Y-167856891D01*
X119575843Y-168131252D01*
X119724822Y-168381355D01*
X119919731Y-168597588D01*
X120153080Y-168771641D01*
X120415901Y-168896825D01*
X120563110Y-168941476D01*
X120793000Y-168820155D01*
X120793000Y-167627000D01*
X120773000Y-167627000D01*
X120773000Y-167373000D01*
X120793000Y-167373000D01*
X120793000Y-167353000D01*
X121047000Y-167353000D01*
X121047000Y-167373000D01*
X121047000Y-167373000D01*
G37*
X121047000Y-167373000D02*
X121067000Y-167373000D01*
X121067000Y-167627000D01*
X121047000Y-167627000D01*
X121047000Y-168820155D01*
X121276890Y-168941476D01*
X121424099Y-168896825D01*
X121686920Y-168771641D01*
X121920269Y-168597588D01*
X122115178Y-168381355D01*
X122184799Y-168264477D01*
X122219294Y-168329014D01*
X122404866Y-168555134D01*
X122630986Y-168740706D01*
X122888966Y-168878599D01*
X123063420Y-168931519D01*
X123004774Y-169073102D01*
X122965000Y-169273061D01*
X122965000Y-169340000D01*
X117831211Y-169340000D01*
X119544209Y-167627002D01*
X119599185Y-167627002D01*
X119478519Y-167856891D01*
X119575843Y-168131252D01*
X119724822Y-168381355D01*
X119919731Y-168597588D01*
X120153080Y-168771641D01*
X120415901Y-168896825D01*
X120563110Y-168941476D01*
X120793000Y-168820155D01*
X120793000Y-167627000D01*
X120773000Y-167627000D01*
X120773000Y-167373000D01*
X120793000Y-167373000D01*
X120793000Y-167353000D01*
X121047000Y-167353000D01*
X121047000Y-167373000D01*
G36*
X90941201Y-147356003D02*
G01*
X90965000Y-147385002D01*
X90993998Y-147408800D01*
X91080724Y-147479975D01*
X91193024Y-147540001D01*
X91212754Y-147550547D01*
X91356015Y-147594004D01*
X91467668Y-147605001D01*
X91467678Y-147605001D01*
X91505000Y-147608677D01*
X91542323Y-147605001D01*
X96722975Y-147605001D01*
X96667818Y-147708192D01*
X96585764Y-147978691D01*
X96558057Y-148260000D01*
X96585764Y-148541309D01*
X96667818Y-148811808D01*
X96801068Y-149061101D01*
X96980392Y-149279608D01*
X97198899Y-149458932D01*
X97331858Y-149530000D01*
X97198899Y-149601068D01*
X96980392Y-149780392D01*
X96801068Y-149998899D01*
X96667818Y-150248192D01*
X96585764Y-150518691D01*
X96558057Y-150800000D01*
X96585764Y-151081309D01*
X96667818Y-151351808D01*
X96801068Y-151601101D01*
X96980392Y-151819608D01*
X97198899Y-151998932D01*
X97331858Y-152070000D01*
X97198899Y-152141068D01*
X96980392Y-152320392D01*
X96801068Y-152538899D01*
X96667818Y-152788192D01*
X96585764Y-153058691D01*
X96558057Y-153340000D01*
X96585764Y-153621309D01*
X96667818Y-153891808D01*
X96801068Y-154141101D01*
X96980392Y-154359608D01*
X97198899Y-154538932D01*
X97336682Y-154612579D01*
X97144869Y-154727615D01*
X96936481Y-154916586D01*
X96768963Y-155142580D01*
X96648754Y-155396913D01*
X96608096Y-155530961D01*
X96730085Y-155753000D01*
X97873000Y-155753000D01*
X97873000Y-155733000D01*
X98127000Y-155733000D01*
X98127000Y-155753000D01*
X99269915Y-155753000D01*
X99391904Y-155530961D01*
X99351246Y-155396913D01*
X99231037Y-155142580D01*
X99063519Y-154916586D01*
X98855131Y-154727615D01*
X98663318Y-154612579D01*
X98801101Y-154538932D01*
X99019608Y-154359608D01*
X99198932Y-154141101D01*
X99332182Y-153891808D01*
X99414236Y-153621309D01*
X99441943Y-153340000D01*
X99414236Y-153058691D01*
X99332182Y-152788192D01*
X99198932Y-152538899D01*
X99019608Y-152320392D01*
X98801101Y-152141068D01*
X98668142Y-152070000D01*
X98733623Y-152035000D01*
X104465000Y-152035000D01*
X104465000Y-152101939D01*
X104504774Y-152301898D01*
X104582795Y-152490256D01*
X104589648Y-152500512D01*
X104515720Y-152540027D01*
X104436552Y-152604999D01*
X104399996Y-152635000D01*
X104376198Y-152663998D01*
X100795196Y-156245001D01*
X99387063Y-156245001D01*
X99391904Y-156229039D01*
X99269915Y-156007000D01*
X98127000Y-156007000D01*
X98127000Y-156027000D01*
X97873000Y-156027000D01*
X97873000Y-156007000D01*
X96730085Y-156007000D01*
X96608096Y-156229039D01*
X96648754Y-156363087D01*
X96768963Y-156617420D01*
X96792472Y-156649136D01*
X92116608Y-161325001D01*
X84147063Y-161325001D01*
X84151904Y-161309039D01*
X84029915Y-161087000D01*
X82887000Y-161087000D01*
X82887000Y-161107000D01*
X82633000Y-161107000D01*
X82633000Y-161087000D01*
X82613000Y-161087000D01*
X82613000Y-160833000D01*
X82633000Y-160833000D01*
X82633000Y-160813000D01*
X82887000Y-160813000D01*
X82887000Y-160833000D01*
X84029915Y-160833000D01*
X84151904Y-160610961D01*
X84111246Y-160476913D01*
X83991037Y-160222580D01*
X83823519Y-159996586D01*
X83714871Y-159898061D01*
X84465000Y-159898061D01*
X84465000Y-160101939D01*
X84504774Y-160301898D01*
X84582795Y-160490256D01*
X84696063Y-160659774D01*
X84840226Y-160803937D01*
X85009744Y-160917205D01*
X85198102Y-160995226D01*
X85398061Y-161035000D01*
X85601939Y-161035000D01*
X85801898Y-160995226D01*
X85990256Y-160917205D01*
X86159774Y-160803937D01*
X86203711Y-160760000D01*
X90962678Y-160760000D01*
X91000000Y-160763676D01*
X91037322Y-160760000D01*
X91037333Y-160760000D01*
X91148986Y-160749003D01*
X91292247Y-160705546D01*
X91424276Y-160634974D01*
X91540001Y-160540001D01*
X91563804Y-160510997D01*
X94539803Y-157535000D01*
X94601939Y-157535000D01*
X94801898Y-157495226D01*
X94990256Y-157417205D01*
X95159774Y-157303937D01*
X95303937Y-157159774D01*
X95417205Y-156990256D01*
X95495226Y-156801898D01*
X95535000Y-156601939D01*
X95535000Y-156398061D01*
X95495226Y-156198102D01*
X95417205Y-156009744D01*
X95303937Y-155840226D01*
X95159774Y-155696063D01*
X94990256Y-155582795D01*
X94801898Y-155504774D01*
X94601939Y-155465000D01*
X94398061Y-155465000D01*
X94198102Y-155504774D01*
X94009744Y-155582795D01*
X93840226Y-155696063D01*
X93696063Y-155840226D01*
X93582795Y-156009744D01*
X93504774Y-156198102D01*
X93465000Y-156398061D01*
X93465000Y-156460197D01*
X90685199Y-159240000D01*
X86203711Y-159240000D01*
X86159774Y-159196063D01*
X85990256Y-159082795D01*
X85801898Y-159004774D01*
X85601939Y-158965000D01*
X85398061Y-158965000D01*
X85198102Y-159004774D01*
X85009744Y-159082795D01*
X84840226Y-159196063D01*
X84696063Y-159340226D01*
X84582795Y-159509744D01*
X84504774Y-159698102D01*
X84465000Y-159898061D01*
X83714871Y-159898061D01*
X83615131Y-159807615D01*
X83423318Y-159692579D01*
X83561101Y-159618932D01*
X83779608Y-159439608D01*
X83958932Y-159221101D01*
X84092182Y-158971808D01*
X84174236Y-158701309D01*
X84201943Y-158420000D01*
X84174236Y-158138691D01*
X84092182Y-157868192D01*
X83958932Y-157618899D01*
X83779608Y-157400392D01*
X83561101Y-157221068D01*
X83428142Y-157150000D01*
X83561101Y-157078932D01*
X83779608Y-156899608D01*
X83958932Y-156681101D01*
X84092182Y-156431808D01*
X84174236Y-156161309D01*
X84201943Y-155880000D01*
X84174236Y-155598691D01*
X84092182Y-155328192D01*
X83958932Y-155078899D01*
X83779608Y-154860392D01*
X83561101Y-154681068D01*
X83428142Y-154610000D01*
X83561101Y-154538932D01*
X83779608Y-154359608D01*
X83958932Y-154141101D01*
X84092182Y-153891808D01*
X84174236Y-153621309D01*
X84201943Y-153340000D01*
X84174236Y-153058691D01*
X84092182Y-152788192D01*
X83958932Y-152538899D01*
X83779608Y-152320392D01*
X83561101Y-152141068D01*
X83428142Y-152070000D01*
X83561101Y-151998932D01*
X83779608Y-151819608D01*
X83958932Y-151601101D01*
X84092182Y-151351808D01*
X84174236Y-151081309D01*
X84201943Y-150800000D01*
X84174236Y-150518691D01*
X84092182Y-150248192D01*
X83958932Y-149998899D01*
X83779608Y-149780392D01*
X83561101Y-149601068D01*
X83428142Y-149530000D01*
X83561101Y-149458932D01*
X83779608Y-149279608D01*
X83958932Y-149061101D01*
X84092182Y-148811808D01*
X84174236Y-148541309D01*
X84201943Y-148260000D01*
X84174236Y-147978691D01*
X84092182Y-147708192D01*
X83958932Y-147458899D01*
X83779608Y-147240392D01*
X83561101Y-147061068D01*
X83428142Y-146990000D01*
X83561101Y-146918932D01*
X83779608Y-146739608D01*
X83958932Y-146521101D01*
X84092182Y-146271808D01*
X84174236Y-146001309D01*
X84201943Y-145720000D01*
X84174236Y-145438691D01*
X84092182Y-145168192D01*
X83958932Y-144918899D01*
X83779608Y-144700392D01*
X83561101Y-144521068D01*
X83428142Y-144450000D01*
X83561101Y-144378932D01*
X83779608Y-144199608D01*
X83958932Y-143981101D01*
X84092182Y-143731808D01*
X84174236Y-143461309D01*
X84201943Y-143180000D01*
X84174236Y-142898691D01*
X84092182Y-142628192D01*
X83958932Y-142378899D01*
X83779608Y-142160392D01*
X83561101Y-141981068D01*
X83428142Y-141910000D01*
X83561101Y-141838932D01*
X83779608Y-141659608D01*
X83958932Y-141441101D01*
X84092182Y-141191808D01*
X84174236Y-140921309D01*
X84201943Y-140640000D01*
X84199402Y-140614203D01*
X90941201Y-147356003D01*
X90941201Y-147356003D01*
G37*
X90941201Y-147356003D02*
X90965000Y-147385002D01*
X90993998Y-147408800D01*
X91080724Y-147479975D01*
X91193024Y-147540001D01*
X91212754Y-147550547D01*
X91356015Y-147594004D01*
X91467668Y-147605001D01*
X91467678Y-147605001D01*
X91505000Y-147608677D01*
X91542323Y-147605001D01*
X96722975Y-147605001D01*
X96667818Y-147708192D01*
X96585764Y-147978691D01*
X96558057Y-148260000D01*
X96585764Y-148541309D01*
X96667818Y-148811808D01*
X96801068Y-149061101D01*
X96980392Y-149279608D01*
X97198899Y-149458932D01*
X97331858Y-149530000D01*
X97198899Y-149601068D01*
X96980392Y-149780392D01*
X96801068Y-149998899D01*
X96667818Y-150248192D01*
X96585764Y-150518691D01*
X96558057Y-150800000D01*
X96585764Y-151081309D01*
X96667818Y-151351808D01*
X96801068Y-151601101D01*
X96980392Y-151819608D01*
X97198899Y-151998932D01*
X97331858Y-152070000D01*
X97198899Y-152141068D01*
X96980392Y-152320392D01*
X96801068Y-152538899D01*
X96667818Y-152788192D01*
X96585764Y-153058691D01*
X96558057Y-153340000D01*
X96585764Y-153621309D01*
X96667818Y-153891808D01*
X96801068Y-154141101D01*
X96980392Y-154359608D01*
X97198899Y-154538932D01*
X97336682Y-154612579D01*
X97144869Y-154727615D01*
X96936481Y-154916586D01*
X96768963Y-155142580D01*
X96648754Y-155396913D01*
X96608096Y-155530961D01*
X96730085Y-155753000D01*
X97873000Y-155753000D01*
X97873000Y-155733000D01*
X98127000Y-155733000D01*
X98127000Y-155753000D01*
X99269915Y-155753000D01*
X99391904Y-155530961D01*
X99351246Y-155396913D01*
X99231037Y-155142580D01*
X99063519Y-154916586D01*
X98855131Y-154727615D01*
X98663318Y-154612579D01*
X98801101Y-154538932D01*
X99019608Y-154359608D01*
X99198932Y-154141101D01*
X99332182Y-153891808D01*
X99414236Y-153621309D01*
X99441943Y-153340000D01*
X99414236Y-153058691D01*
X99332182Y-152788192D01*
X99198932Y-152538899D01*
X99019608Y-152320392D01*
X98801101Y-152141068D01*
X98668142Y-152070000D01*
X98733623Y-152035000D01*
X104465000Y-152035000D01*
X104465000Y-152101939D01*
X104504774Y-152301898D01*
X104582795Y-152490256D01*
X104589648Y-152500512D01*
X104515720Y-152540027D01*
X104436552Y-152604999D01*
X104399996Y-152635000D01*
X104376198Y-152663998D01*
X100795196Y-156245001D01*
X99387063Y-156245001D01*
X99391904Y-156229039D01*
X99269915Y-156007000D01*
X98127000Y-156007000D01*
X98127000Y-156027000D01*
X97873000Y-156027000D01*
X97873000Y-156007000D01*
X96730085Y-156007000D01*
X96608096Y-156229039D01*
X96648754Y-156363087D01*
X96768963Y-156617420D01*
X96792472Y-156649136D01*
X92116608Y-161325001D01*
X84147063Y-161325001D01*
X84151904Y-161309039D01*
X84029915Y-161087000D01*
X82887000Y-161087000D01*
X82887000Y-161107000D01*
X82633000Y-161107000D01*
X82633000Y-161087000D01*
X82613000Y-161087000D01*
X82613000Y-160833000D01*
X82633000Y-160833000D01*
X82633000Y-160813000D01*
X82887000Y-160813000D01*
X82887000Y-160833000D01*
X84029915Y-160833000D01*
X84151904Y-160610961D01*
X84111246Y-160476913D01*
X83991037Y-160222580D01*
X83823519Y-159996586D01*
X83714871Y-159898061D01*
X84465000Y-159898061D01*
X84465000Y-160101939D01*
X84504774Y-160301898D01*
X84582795Y-160490256D01*
X84696063Y-160659774D01*
X84840226Y-160803937D01*
X85009744Y-160917205D01*
X85198102Y-160995226D01*
X85398061Y-161035000D01*
X85601939Y-161035000D01*
X85801898Y-160995226D01*
X85990256Y-160917205D01*
X86159774Y-160803937D01*
X86203711Y-160760000D01*
X90962678Y-160760000D01*
X91000000Y-160763676D01*
X91037322Y-160760000D01*
X91037333Y-160760000D01*
X91148986Y-160749003D01*
X91292247Y-160705546D01*
X91424276Y-160634974D01*
X91540001Y-160540001D01*
X91563804Y-160510997D01*
X94539803Y-157535000D01*
X94601939Y-157535000D01*
X94801898Y-157495226D01*
X94990256Y-157417205D01*
X95159774Y-157303937D01*
X95303937Y-157159774D01*
X95417205Y-156990256D01*
X95495226Y-156801898D01*
X95535000Y-156601939D01*
X95535000Y-156398061D01*
X95495226Y-156198102D01*
X95417205Y-156009744D01*
X95303937Y-155840226D01*
X95159774Y-155696063D01*
X94990256Y-155582795D01*
X94801898Y-155504774D01*
X94601939Y-155465000D01*
X94398061Y-155465000D01*
X94198102Y-155504774D01*
X94009744Y-155582795D01*
X93840226Y-155696063D01*
X93696063Y-155840226D01*
X93582795Y-156009744D01*
X93504774Y-156198102D01*
X93465000Y-156398061D01*
X93465000Y-156460197D01*
X90685199Y-159240000D01*
X86203711Y-159240000D01*
X86159774Y-159196063D01*
X85990256Y-159082795D01*
X85801898Y-159004774D01*
X85601939Y-158965000D01*
X85398061Y-158965000D01*
X85198102Y-159004774D01*
X85009744Y-159082795D01*
X84840226Y-159196063D01*
X84696063Y-159340226D01*
X84582795Y-159509744D01*
X84504774Y-159698102D01*
X84465000Y-159898061D01*
X83714871Y-159898061D01*
X83615131Y-159807615D01*
X83423318Y-159692579D01*
X83561101Y-159618932D01*
X83779608Y-159439608D01*
X83958932Y-159221101D01*
X84092182Y-158971808D01*
X84174236Y-158701309D01*
X84201943Y-158420000D01*
X84174236Y-158138691D01*
X84092182Y-157868192D01*
X83958932Y-157618899D01*
X83779608Y-157400392D01*
X83561101Y-157221068D01*
X83428142Y-157150000D01*
X83561101Y-157078932D01*
X83779608Y-156899608D01*
X83958932Y-156681101D01*
X84092182Y-156431808D01*
X84174236Y-156161309D01*
X84201943Y-155880000D01*
X84174236Y-155598691D01*
X84092182Y-155328192D01*
X83958932Y-155078899D01*
X83779608Y-154860392D01*
X83561101Y-154681068D01*
X83428142Y-154610000D01*
X83561101Y-154538932D01*
X83779608Y-154359608D01*
X83958932Y-154141101D01*
X84092182Y-153891808D01*
X84174236Y-153621309D01*
X84201943Y-153340000D01*
X84174236Y-153058691D01*
X84092182Y-152788192D01*
X83958932Y-152538899D01*
X83779608Y-152320392D01*
X83561101Y-152141068D01*
X83428142Y-152070000D01*
X83561101Y-151998932D01*
X83779608Y-151819608D01*
X83958932Y-151601101D01*
X84092182Y-151351808D01*
X84174236Y-151081309D01*
X84201943Y-150800000D01*
X84174236Y-150518691D01*
X84092182Y-150248192D01*
X83958932Y-149998899D01*
X83779608Y-149780392D01*
X83561101Y-149601068D01*
X83428142Y-149530000D01*
X83561101Y-149458932D01*
X83779608Y-149279608D01*
X83958932Y-149061101D01*
X84092182Y-148811808D01*
X84174236Y-148541309D01*
X84201943Y-148260000D01*
X84174236Y-147978691D01*
X84092182Y-147708192D01*
X83958932Y-147458899D01*
X83779608Y-147240392D01*
X83561101Y-147061068D01*
X83428142Y-146990000D01*
X83561101Y-146918932D01*
X83779608Y-146739608D01*
X83958932Y-146521101D01*
X84092182Y-146271808D01*
X84174236Y-146001309D01*
X84201943Y-145720000D01*
X84174236Y-145438691D01*
X84092182Y-145168192D01*
X83958932Y-144918899D01*
X83779608Y-144700392D01*
X83561101Y-144521068D01*
X83428142Y-144450000D01*
X83561101Y-144378932D01*
X83779608Y-144199608D01*
X83958932Y-143981101D01*
X84092182Y-143731808D01*
X84174236Y-143461309D01*
X84201943Y-143180000D01*
X84174236Y-142898691D01*
X84092182Y-142628192D01*
X83958932Y-142378899D01*
X83779608Y-142160392D01*
X83561101Y-141981068D01*
X83428142Y-141910000D01*
X83561101Y-141838932D01*
X83779608Y-141659608D01*
X83958932Y-141441101D01*
X84092182Y-141191808D01*
X84174236Y-140921309D01*
X84201943Y-140640000D01*
X84199402Y-140614203D01*
X90941201Y-147356003D01*
G36*
X126935918Y-145253718D02*
G01*
X126744167Y-145318154D01*
X126521514Y-145437164D01*
X126401626Y-145722020D01*
X127500000Y-146820395D01*
X127514142Y-146806252D01*
X127693748Y-146985858D01*
X127679605Y-147000000D01*
X128777980Y-148098374D01*
X129062836Y-147978486D01*
X129223699Y-147654790D01*
X129247871Y-147565671D01*
X131637199Y-149954999D01*
X129272799Y-149954999D01*
X128064082Y-148746282D01*
X128255833Y-148681846D01*
X128478486Y-148562836D01*
X128598374Y-148277980D01*
X127500000Y-147179605D01*
X127485858Y-147193748D01*
X127306253Y-147014143D01*
X127320395Y-147000000D01*
X126222020Y-145901626D01*
X125937164Y-146021514D01*
X125776301Y-146345210D01*
X125752129Y-146434330D01*
X125651803Y-146334004D01*
X125628000Y-146305000D01*
X125512275Y-146210027D01*
X125380246Y-146139455D01*
X125236985Y-146095998D01*
X125125332Y-146085001D01*
X125125321Y-146085001D01*
X125087999Y-146081325D01*
X125050677Y-146085001D01*
X121286016Y-146085001D01*
X121313097Y-145992702D01*
X120500000Y-145179605D01*
X119686903Y-145992702D01*
X119713984Y-146085001D01*
X118367682Y-146085001D01*
X118389502Y-146044180D01*
X118425812Y-145924482D01*
X118438072Y-145800000D01*
X118438072Y-145070512D01*
X119059783Y-145070512D01*
X119101213Y-145350130D01*
X119196397Y-145616292D01*
X119263329Y-145741514D01*
X119507298Y-145813097D01*
X120320395Y-145000000D01*
X120679605Y-145000000D01*
X121492702Y-145813097D01*
X121736671Y-145741514D01*
X121857571Y-145486004D01*
X121926300Y-145211816D01*
X121940217Y-144929488D01*
X121898787Y-144649870D01*
X121803603Y-144383708D01*
X121736671Y-144258486D01*
X121492702Y-144186903D01*
X120679605Y-145000000D01*
X120320395Y-145000000D01*
X119507298Y-144186903D01*
X119263329Y-144258486D01*
X119142429Y-144513996D01*
X119073700Y-144788184D01*
X119059783Y-145070512D01*
X118438072Y-145070512D01*
X118438072Y-144200000D01*
X118425812Y-144075518D01*
X118405118Y-144007298D01*
X119686903Y-144007298D01*
X120500000Y-144820395D01*
X121313097Y-144007298D01*
X121241514Y-143763329D01*
X120986004Y-143642429D01*
X120711816Y-143573700D01*
X120429488Y-143559783D01*
X120149870Y-143601213D01*
X119883708Y-143696397D01*
X119758486Y-143763329D01*
X119686903Y-144007298D01*
X118405118Y-144007298D01*
X118389502Y-143955820D01*
X118330537Y-143845506D01*
X118251185Y-143748815D01*
X118154494Y-143669463D01*
X118044180Y-143610498D01*
X117924482Y-143574188D01*
X117800000Y-143561928D01*
X116200000Y-143561928D01*
X116075518Y-143574188D01*
X115955820Y-143610498D01*
X115845506Y-143669463D01*
X115748815Y-143748815D01*
X115669463Y-143845506D01*
X115610498Y-143955820D01*
X115574188Y-144075518D01*
X115561928Y-144200000D01*
X115561928Y-145800000D01*
X115574188Y-145924482D01*
X115610498Y-146044180D01*
X115632318Y-146085001D01*
X107035000Y-146085001D01*
X107035000Y-145898061D01*
X106995226Y-145698102D01*
X106917205Y-145509744D01*
X106803937Y-145340226D01*
X106659774Y-145196063D01*
X106490256Y-145082795D01*
X106301898Y-145004774D01*
X106101939Y-144965000D01*
X106044105Y-144965000D01*
X106040001Y-144959999D01*
X105924276Y-144865026D01*
X105792247Y-144794454D01*
X105648986Y-144750997D01*
X105537333Y-144740000D01*
X105537322Y-144740000D01*
X105500000Y-144736324D01*
X105462678Y-144740000D01*
X101203711Y-144740000D01*
X101159774Y-144696063D01*
X100990256Y-144582795D01*
X100801898Y-144504774D01*
X100601939Y-144465000D01*
X100398061Y-144465000D01*
X100198102Y-144504774D01*
X100009744Y-144582795D01*
X99840226Y-144696063D01*
X99696063Y-144840226D01*
X99582795Y-145009744D01*
X99504774Y-145198102D01*
X99465000Y-145398061D01*
X99465000Y-145601939D01*
X99504774Y-145801898D01*
X99582795Y-145990256D01*
X99646101Y-146085001D01*
X99388849Y-146085001D01*
X99414236Y-146001309D01*
X99441943Y-145720000D01*
X99414236Y-145438691D01*
X99332182Y-145168192D01*
X99198932Y-144918899D01*
X99019608Y-144700392D01*
X98801101Y-144521068D01*
X98668142Y-144450000D01*
X98801101Y-144378932D01*
X99019608Y-144199608D01*
X99198932Y-143981101D01*
X99332182Y-143731808D01*
X99414236Y-143461309D01*
X99441943Y-143180000D01*
X99414236Y-142898691D01*
X99414045Y-142898061D01*
X99965000Y-142898061D01*
X99965000Y-143101939D01*
X100004774Y-143301898D01*
X100082795Y-143490256D01*
X100196063Y-143659774D01*
X100340226Y-143803937D01*
X100509744Y-143917205D01*
X100698102Y-143995226D01*
X100898061Y-144035000D01*
X101101939Y-144035000D01*
X101301898Y-143995226D01*
X101490256Y-143917205D01*
X101659774Y-143803937D01*
X101803937Y-143659774D01*
X101917205Y-143490256D01*
X101995226Y-143301898D01*
X102035000Y-143101939D01*
X102035000Y-143039801D01*
X102724428Y-142350374D01*
X102724428Y-142900000D01*
X102736688Y-143024482D01*
X102772998Y-143144180D01*
X102831963Y-143254494D01*
X102911315Y-143351185D01*
X103008006Y-143430537D01*
X103118320Y-143489502D01*
X103238018Y-143525812D01*
X103362500Y-143538072D01*
X104637500Y-143538072D01*
X104761982Y-143525812D01*
X104881680Y-143489502D01*
X104991994Y-143430537D01*
X105068443Y-143367797D01*
X105210680Y-143443825D01*
X105450547Y-143516588D01*
X105700000Y-143541157D01*
X105949454Y-143516588D01*
X106189321Y-143443825D01*
X106410384Y-143325664D01*
X106549392Y-143211583D01*
X106590009Y-143252095D01*
X106798633Y-143391102D01*
X107030367Y-143486737D01*
X107076495Y-143493191D01*
X107273000Y-143368985D01*
X107273000Y-142127000D01*
X107253000Y-142127000D01*
X107253000Y-141873000D01*
X107273000Y-141873000D01*
X107273000Y-141853000D01*
X107527000Y-141853000D01*
X107527000Y-141873000D01*
X107547000Y-141873000D01*
X107547000Y-142127000D01*
X107527000Y-142127000D01*
X107527000Y-143368985D01*
X107723505Y-143493191D01*
X107769633Y-143486737D01*
X108001367Y-143391102D01*
X108209991Y-143252095D01*
X108250609Y-143211583D01*
X108389617Y-143325664D01*
X108610680Y-143443825D01*
X108850547Y-143516588D01*
X109100000Y-143541157D01*
X109349454Y-143516588D01*
X109589321Y-143443825D01*
X109810384Y-143325664D01*
X109949392Y-143211583D01*
X109990009Y-143252095D01*
X110198633Y-143391102D01*
X110430367Y-143486737D01*
X110476495Y-143493191D01*
X110673000Y-143368985D01*
X110673000Y-142127000D01*
X110927000Y-142127000D01*
X110927000Y-143368985D01*
X111123505Y-143493191D01*
X111169633Y-143486737D01*
X111401367Y-143391102D01*
X111609991Y-143252095D01*
X111787488Y-143075059D01*
X111927036Y-142866797D01*
X112023273Y-142635312D01*
X112072500Y-142389500D01*
X112072500Y-142127000D01*
X110927000Y-142127000D01*
X110673000Y-142127000D01*
X110653000Y-142127000D01*
X110653000Y-141873000D01*
X110673000Y-141873000D01*
X110673000Y-141853000D01*
X110927000Y-141853000D01*
X110927000Y-141873000D01*
X112072500Y-141873000D01*
X112072500Y-141610500D01*
X112057378Y-141534990D01*
X114112685Y-141534990D01*
X114196063Y-141659774D01*
X114340226Y-141803937D01*
X114509744Y-141917205D01*
X114698102Y-141995226D01*
X114898061Y-142035000D01*
X115101939Y-142035000D01*
X115301898Y-141995226D01*
X115490256Y-141917205D01*
X115659774Y-141803937D01*
X115803937Y-141659774D01*
X115917205Y-141490256D01*
X115995226Y-141301898D01*
X116035000Y-141101939D01*
X116035000Y-140898061D01*
X115995226Y-140698102D01*
X115917205Y-140509744D01*
X115803937Y-140340226D01*
X115659774Y-140196063D01*
X115490256Y-140082795D01*
X115301898Y-140004774D01*
X115101939Y-139965000D01*
X114898061Y-139965000D01*
X114698102Y-140004774D01*
X114673439Y-140014990D01*
X103262332Y-140014990D01*
X103225009Y-140011314D01*
X103187686Y-140014990D01*
X103187677Y-140014990D01*
X103076024Y-140025987D01*
X102932763Y-140069444D01*
X102800734Y-140140016D01*
X102685009Y-140234989D01*
X102661211Y-140263987D01*
X100960199Y-141965000D01*
X100898061Y-141965000D01*
X100698102Y-142004774D01*
X100509744Y-142082795D01*
X100340226Y-142196063D01*
X100196063Y-142340226D01*
X100082795Y-142509744D01*
X100004774Y-142698102D01*
X99965000Y-142898061D01*
X99414045Y-142898061D01*
X99332182Y-142628192D01*
X99198932Y-142378899D01*
X99019608Y-142160392D01*
X98801101Y-141981068D01*
X98668142Y-141910000D01*
X98801101Y-141838932D01*
X99019608Y-141659608D01*
X99059201Y-141611364D01*
X99133410Y-141722427D01*
X99277573Y-141866590D01*
X99447091Y-141979858D01*
X99635449Y-142057879D01*
X99835408Y-142097653D01*
X100039286Y-142097653D01*
X100239245Y-142057879D01*
X100427603Y-141979858D01*
X100597121Y-141866590D01*
X100741284Y-141722427D01*
X100854552Y-141552909D01*
X100932573Y-141364551D01*
X100972347Y-141164592D01*
X100972347Y-141102454D01*
X101039802Y-141035000D01*
X101101939Y-141035000D01*
X101301898Y-140995226D01*
X101490256Y-140917205D01*
X101659774Y-140803937D01*
X101803937Y-140659774D01*
X101917205Y-140490256D01*
X101995226Y-140301898D01*
X102035000Y-140101939D01*
X102035000Y-139898061D01*
X101995226Y-139698102D01*
X101917205Y-139509744D01*
X101803937Y-139340226D01*
X101659774Y-139196063D01*
X101490256Y-139082795D01*
X101301898Y-139004774D01*
X101101939Y-138965000D01*
X100898061Y-138965000D01*
X100698102Y-139004774D01*
X100509744Y-139082795D01*
X100340226Y-139196063D01*
X100196063Y-139340226D01*
X100082795Y-139509744D01*
X100004774Y-139698102D01*
X99965000Y-139898061D01*
X99965000Y-139960198D01*
X99897546Y-140027653D01*
X99835408Y-140027653D01*
X99635449Y-140067427D01*
X99447091Y-140145448D01*
X99365989Y-140199639D01*
X99332182Y-140088192D01*
X99198932Y-139838899D01*
X99019608Y-139620392D01*
X98801101Y-139441068D01*
X98668142Y-139370000D01*
X98801101Y-139298932D01*
X99019608Y-139119608D01*
X99198932Y-138901101D01*
X99332182Y-138651808D01*
X99414236Y-138381309D01*
X99441943Y-138100000D01*
X99414236Y-137818691D01*
X99388849Y-137734999D01*
X119417200Y-137734999D01*
X126935918Y-145253718D01*
X126935918Y-145253718D01*
G37*
X126935918Y-145253718D02*
X126744167Y-145318154D01*
X126521514Y-145437164D01*
X126401626Y-145722020D01*
X127500000Y-146820395D01*
X127514142Y-146806252D01*
X127693748Y-146985858D01*
X127679605Y-147000000D01*
X128777980Y-148098374D01*
X129062836Y-147978486D01*
X129223699Y-147654790D01*
X129247871Y-147565671D01*
X131637199Y-149954999D01*
X129272799Y-149954999D01*
X128064082Y-148746282D01*
X128255833Y-148681846D01*
X128478486Y-148562836D01*
X128598374Y-148277980D01*
X127500000Y-147179605D01*
X127485858Y-147193748D01*
X127306253Y-147014143D01*
X127320395Y-147000000D01*
X126222020Y-145901626D01*
X125937164Y-146021514D01*
X125776301Y-146345210D01*
X125752129Y-146434330D01*
X125651803Y-146334004D01*
X125628000Y-146305000D01*
X125512275Y-146210027D01*
X125380246Y-146139455D01*
X125236985Y-146095998D01*
X125125332Y-146085001D01*
X125125321Y-146085001D01*
X125087999Y-146081325D01*
X125050677Y-146085001D01*
X121286016Y-146085001D01*
X121313097Y-145992702D01*
X120500000Y-145179605D01*
X119686903Y-145992702D01*
X119713984Y-146085001D01*
X118367682Y-146085001D01*
X118389502Y-146044180D01*
X118425812Y-145924482D01*
X118438072Y-145800000D01*
X118438072Y-145070512D01*
X119059783Y-145070512D01*
X119101213Y-145350130D01*
X119196397Y-145616292D01*
X119263329Y-145741514D01*
X119507298Y-145813097D01*
X120320395Y-145000000D01*
X120679605Y-145000000D01*
X121492702Y-145813097D01*
X121736671Y-145741514D01*
X121857571Y-145486004D01*
X121926300Y-145211816D01*
X121940217Y-144929488D01*
X121898787Y-144649870D01*
X121803603Y-144383708D01*
X121736671Y-144258486D01*
X121492702Y-144186903D01*
X120679605Y-145000000D01*
X120320395Y-145000000D01*
X119507298Y-144186903D01*
X119263329Y-144258486D01*
X119142429Y-144513996D01*
X119073700Y-144788184D01*
X119059783Y-145070512D01*
X118438072Y-145070512D01*
X118438072Y-144200000D01*
X118425812Y-144075518D01*
X118405118Y-144007298D01*
X119686903Y-144007298D01*
X120500000Y-144820395D01*
X121313097Y-144007298D01*
X121241514Y-143763329D01*
X120986004Y-143642429D01*
X120711816Y-143573700D01*
X120429488Y-143559783D01*
X120149870Y-143601213D01*
X119883708Y-143696397D01*
X119758486Y-143763329D01*
X119686903Y-144007298D01*
X118405118Y-144007298D01*
X118389502Y-143955820D01*
X118330537Y-143845506D01*
X118251185Y-143748815D01*
X118154494Y-143669463D01*
X118044180Y-143610498D01*
X117924482Y-143574188D01*
X117800000Y-143561928D01*
X116200000Y-143561928D01*
X116075518Y-143574188D01*
X115955820Y-143610498D01*
X115845506Y-143669463D01*
X115748815Y-143748815D01*
X115669463Y-143845506D01*
X115610498Y-143955820D01*
X115574188Y-144075518D01*
X115561928Y-144200000D01*
X115561928Y-145800000D01*
X115574188Y-145924482D01*
X115610498Y-146044180D01*
X115632318Y-146085001D01*
X107035000Y-146085001D01*
X107035000Y-145898061D01*
X106995226Y-145698102D01*
X106917205Y-145509744D01*
X106803937Y-145340226D01*
X106659774Y-145196063D01*
X106490256Y-145082795D01*
X106301898Y-145004774D01*
X106101939Y-144965000D01*
X106044105Y-144965000D01*
X106040001Y-144959999D01*
X105924276Y-144865026D01*
X105792247Y-144794454D01*
X105648986Y-144750997D01*
X105537333Y-144740000D01*
X105537322Y-144740000D01*
X105500000Y-144736324D01*
X105462678Y-144740000D01*
X101203711Y-144740000D01*
X101159774Y-144696063D01*
X100990256Y-144582795D01*
X100801898Y-144504774D01*
X100601939Y-144465000D01*
X100398061Y-144465000D01*
X100198102Y-144504774D01*
X100009744Y-144582795D01*
X99840226Y-144696063D01*
X99696063Y-144840226D01*
X99582795Y-145009744D01*
X99504774Y-145198102D01*
X99465000Y-145398061D01*
X99465000Y-145601939D01*
X99504774Y-145801898D01*
X99582795Y-145990256D01*
X99646101Y-146085001D01*
X99388849Y-146085001D01*
X99414236Y-146001309D01*
X99441943Y-145720000D01*
X99414236Y-145438691D01*
X99332182Y-145168192D01*
X99198932Y-144918899D01*
X99019608Y-144700392D01*
X98801101Y-144521068D01*
X98668142Y-144450000D01*
X98801101Y-144378932D01*
X99019608Y-144199608D01*
X99198932Y-143981101D01*
X99332182Y-143731808D01*
X99414236Y-143461309D01*
X99441943Y-143180000D01*
X99414236Y-142898691D01*
X99414045Y-142898061D01*
X99965000Y-142898061D01*
X99965000Y-143101939D01*
X100004774Y-143301898D01*
X100082795Y-143490256D01*
X100196063Y-143659774D01*
X100340226Y-143803937D01*
X100509744Y-143917205D01*
X100698102Y-143995226D01*
X100898061Y-144035000D01*
X101101939Y-144035000D01*
X101301898Y-143995226D01*
X101490256Y-143917205D01*
X101659774Y-143803937D01*
X101803937Y-143659774D01*
X101917205Y-143490256D01*
X101995226Y-143301898D01*
X102035000Y-143101939D01*
X102035000Y-143039801D01*
X102724428Y-142350374D01*
X102724428Y-142900000D01*
X102736688Y-143024482D01*
X102772998Y-143144180D01*
X102831963Y-143254494D01*
X102911315Y-143351185D01*
X103008006Y-143430537D01*
X103118320Y-143489502D01*
X103238018Y-143525812D01*
X103362500Y-143538072D01*
X104637500Y-143538072D01*
X104761982Y-143525812D01*
X104881680Y-143489502D01*
X104991994Y-143430537D01*
X105068443Y-143367797D01*
X105210680Y-143443825D01*
X105450547Y-143516588D01*
X105700000Y-143541157D01*
X105949454Y-143516588D01*
X106189321Y-143443825D01*
X106410384Y-143325664D01*
X106549392Y-143211583D01*
X106590009Y-143252095D01*
X106798633Y-143391102D01*
X107030367Y-143486737D01*
X107076495Y-143493191D01*
X107273000Y-143368985D01*
X107273000Y-142127000D01*
X107253000Y-142127000D01*
X107253000Y-141873000D01*
X107273000Y-141873000D01*
X107273000Y-141853000D01*
X107527000Y-141853000D01*
X107527000Y-141873000D01*
X107547000Y-141873000D01*
X107547000Y-142127000D01*
X107527000Y-142127000D01*
X107527000Y-143368985D01*
X107723505Y-143493191D01*
X107769633Y-143486737D01*
X108001367Y-143391102D01*
X108209991Y-143252095D01*
X108250609Y-143211583D01*
X108389617Y-143325664D01*
X108610680Y-143443825D01*
X108850547Y-143516588D01*
X109100000Y-143541157D01*
X109349454Y-143516588D01*
X109589321Y-143443825D01*
X109810384Y-143325664D01*
X109949392Y-143211583D01*
X109990009Y-143252095D01*
X110198633Y-143391102D01*
X110430367Y-143486737D01*
X110476495Y-143493191D01*
X110673000Y-143368985D01*
X110673000Y-142127000D01*
X110927000Y-142127000D01*
X110927000Y-143368985D01*
X111123505Y-143493191D01*
X111169633Y-143486737D01*
X111401367Y-143391102D01*
X111609991Y-143252095D01*
X111787488Y-143075059D01*
X111927036Y-142866797D01*
X112023273Y-142635312D01*
X112072500Y-142389500D01*
X112072500Y-142127000D01*
X110927000Y-142127000D01*
X110673000Y-142127000D01*
X110653000Y-142127000D01*
X110653000Y-141873000D01*
X110673000Y-141873000D01*
X110673000Y-141853000D01*
X110927000Y-141853000D01*
X110927000Y-141873000D01*
X112072500Y-141873000D01*
X112072500Y-141610500D01*
X112057378Y-141534990D01*
X114112685Y-141534990D01*
X114196063Y-141659774D01*
X114340226Y-141803937D01*
X114509744Y-141917205D01*
X114698102Y-141995226D01*
X114898061Y-142035000D01*
X115101939Y-142035000D01*
X115301898Y-141995226D01*
X115490256Y-141917205D01*
X115659774Y-141803937D01*
X115803937Y-141659774D01*
X115917205Y-141490256D01*
X115995226Y-141301898D01*
X116035000Y-141101939D01*
X116035000Y-140898061D01*
X115995226Y-140698102D01*
X115917205Y-140509744D01*
X115803937Y-140340226D01*
X115659774Y-140196063D01*
X115490256Y-140082795D01*
X115301898Y-140004774D01*
X115101939Y-139965000D01*
X114898061Y-139965000D01*
X114698102Y-140004774D01*
X114673439Y-140014990D01*
X103262332Y-140014990D01*
X103225009Y-140011314D01*
X103187686Y-140014990D01*
X103187677Y-140014990D01*
X103076024Y-140025987D01*
X102932763Y-140069444D01*
X102800734Y-140140016D01*
X102685009Y-140234989D01*
X102661211Y-140263987D01*
X100960199Y-141965000D01*
X100898061Y-141965000D01*
X100698102Y-142004774D01*
X100509744Y-142082795D01*
X100340226Y-142196063D01*
X100196063Y-142340226D01*
X100082795Y-142509744D01*
X100004774Y-142698102D01*
X99965000Y-142898061D01*
X99414045Y-142898061D01*
X99332182Y-142628192D01*
X99198932Y-142378899D01*
X99019608Y-142160392D01*
X98801101Y-141981068D01*
X98668142Y-141910000D01*
X98801101Y-141838932D01*
X99019608Y-141659608D01*
X99059201Y-141611364D01*
X99133410Y-141722427D01*
X99277573Y-141866590D01*
X99447091Y-141979858D01*
X99635449Y-142057879D01*
X99835408Y-142097653D01*
X100039286Y-142097653D01*
X100239245Y-142057879D01*
X100427603Y-141979858D01*
X100597121Y-141866590D01*
X100741284Y-141722427D01*
X100854552Y-141552909D01*
X100932573Y-141364551D01*
X100972347Y-141164592D01*
X100972347Y-141102454D01*
X101039802Y-141035000D01*
X101101939Y-141035000D01*
X101301898Y-140995226D01*
X101490256Y-140917205D01*
X101659774Y-140803937D01*
X101803937Y-140659774D01*
X101917205Y-140490256D01*
X101995226Y-140301898D01*
X102035000Y-140101939D01*
X102035000Y-139898061D01*
X101995226Y-139698102D01*
X101917205Y-139509744D01*
X101803937Y-139340226D01*
X101659774Y-139196063D01*
X101490256Y-139082795D01*
X101301898Y-139004774D01*
X101101939Y-138965000D01*
X100898061Y-138965000D01*
X100698102Y-139004774D01*
X100509744Y-139082795D01*
X100340226Y-139196063D01*
X100196063Y-139340226D01*
X100082795Y-139509744D01*
X100004774Y-139698102D01*
X99965000Y-139898061D01*
X99965000Y-139960198D01*
X99897546Y-140027653D01*
X99835408Y-140027653D01*
X99635449Y-140067427D01*
X99447091Y-140145448D01*
X99365989Y-140199639D01*
X99332182Y-140088192D01*
X99198932Y-139838899D01*
X99019608Y-139620392D01*
X98801101Y-139441068D01*
X98668142Y-139370000D01*
X98801101Y-139298932D01*
X99019608Y-139119608D01*
X99198932Y-138901101D01*
X99332182Y-138651808D01*
X99414236Y-138381309D01*
X99441943Y-138100000D01*
X99414236Y-137818691D01*
X99388849Y-137734999D01*
X119417200Y-137734999D01*
X126935918Y-145253718D01*
G36*
X96585764Y-137818691D02*
G01*
X96558057Y-138100000D01*
X96585764Y-138381309D01*
X96667818Y-138651808D01*
X96801068Y-138901101D01*
X96980392Y-139119608D01*
X97198899Y-139298932D01*
X97331858Y-139370000D01*
X97198899Y-139441068D01*
X96980392Y-139620392D01*
X96801068Y-139838899D01*
X96667818Y-140088192D01*
X96585764Y-140358691D01*
X96558057Y-140640000D01*
X96585764Y-140921309D01*
X96667818Y-141191808D01*
X96801068Y-141441101D01*
X96980392Y-141659608D01*
X97198899Y-141838932D01*
X97331858Y-141910000D01*
X97198899Y-141981068D01*
X96980392Y-142160392D01*
X96801068Y-142378899D01*
X96667818Y-142628192D01*
X96585764Y-142898691D01*
X96558057Y-143180000D01*
X96585764Y-143461309D01*
X96667818Y-143731808D01*
X96801068Y-143981101D01*
X96980392Y-144199608D01*
X97198899Y-144378932D01*
X97331858Y-144450000D01*
X97198899Y-144521068D01*
X96980392Y-144700392D01*
X96801068Y-144918899D01*
X96667818Y-145168192D01*
X96585764Y-145438691D01*
X96558057Y-145720000D01*
X96585764Y-146001309D01*
X96611151Y-146085001D01*
X91819803Y-146085001D01*
X84160708Y-138425907D01*
X84174236Y-138381309D01*
X84201943Y-138100000D01*
X84174236Y-137818691D01*
X84149193Y-137736133D01*
X84174999Y-137738675D01*
X84212324Y-137734999D01*
X96611151Y-137734999D01*
X96585764Y-137818691D01*
X96585764Y-137818691D01*
G37*
X96585764Y-137818691D02*
X96558057Y-138100000D01*
X96585764Y-138381309D01*
X96667818Y-138651808D01*
X96801068Y-138901101D01*
X96980392Y-139119608D01*
X97198899Y-139298932D01*
X97331858Y-139370000D01*
X97198899Y-139441068D01*
X96980392Y-139620392D01*
X96801068Y-139838899D01*
X96667818Y-140088192D01*
X96585764Y-140358691D01*
X96558057Y-140640000D01*
X96585764Y-140921309D01*
X96667818Y-141191808D01*
X96801068Y-141441101D01*
X96980392Y-141659608D01*
X97198899Y-141838932D01*
X97331858Y-141910000D01*
X97198899Y-141981068D01*
X96980392Y-142160392D01*
X96801068Y-142378899D01*
X96667818Y-142628192D01*
X96585764Y-142898691D01*
X96558057Y-143180000D01*
X96585764Y-143461309D01*
X96667818Y-143731808D01*
X96801068Y-143981101D01*
X96980392Y-144199608D01*
X97198899Y-144378932D01*
X97331858Y-144450000D01*
X97198899Y-144521068D01*
X96980392Y-144700392D01*
X96801068Y-144918899D01*
X96667818Y-145168192D01*
X96585764Y-145438691D01*
X96558057Y-145720000D01*
X96585764Y-146001309D01*
X96611151Y-146085001D01*
X91819803Y-146085001D01*
X84160708Y-138425907D01*
X84174236Y-138381309D01*
X84201943Y-138100000D01*
X84174236Y-137818691D01*
X84149193Y-137736133D01*
X84174999Y-137738675D01*
X84212324Y-137734999D01*
X96611151Y-137734999D01*
X96585764Y-137818691D01*
G36*
X81958899Y-139298932D02*
G01*
X82091858Y-139370000D01*
X81958899Y-139441068D01*
X81944989Y-139452484D01*
X81944989Y-139287516D01*
X81958899Y-139298932D01*
X81958899Y-139298932D01*
G37*
X81958899Y-139298932D02*
X82091858Y-139370000D01*
X81958899Y-139441068D01*
X81944989Y-139452484D01*
X81944989Y-139287516D01*
X81958899Y-139298932D01*
G36*
X81958899Y-136758932D02*
G01*
X82091858Y-136830000D01*
X81958899Y-136901068D01*
X81944989Y-136912484D01*
X81944989Y-136747516D01*
X81958899Y-136758932D01*
X81958899Y-136758932D01*
G37*
X81958899Y-136758932D02*
X82091858Y-136830000D01*
X81958899Y-136901068D01*
X81944989Y-136912484D01*
X81944989Y-136747516D01*
X81958899Y-136758932D01*
G36*
X131790725Y-120690025D02*
G01*
X131675000Y-120784998D01*
X131651202Y-120813996D01*
X131405995Y-121059203D01*
X131331111Y-121036487D01*
X131112950Y-121015000D01*
X130967050Y-121015000D01*
X130748889Y-121036487D01*
X130468966Y-121121401D01*
X130210986Y-121259294D01*
X129984866Y-121444866D01*
X129960393Y-121474687D01*
X129939502Y-121405820D01*
X129880537Y-121295506D01*
X129801185Y-121198815D01*
X129704494Y-121119463D01*
X129594180Y-121060498D01*
X129474482Y-121024188D01*
X129350000Y-121011928D01*
X127650000Y-121011928D01*
X127525518Y-121024188D01*
X127405820Y-121060498D01*
X127295506Y-121119463D01*
X127198815Y-121198815D01*
X127119463Y-121295506D01*
X127060498Y-121405820D01*
X127024188Y-121525518D01*
X127011928Y-121650000D01*
X127011928Y-122915001D01*
X121950805Y-122915001D01*
X120199805Y-121164002D01*
X120176002Y-121134998D01*
X120060277Y-121040025D01*
X119928248Y-120969453D01*
X119784987Y-120925996D01*
X119673334Y-120914999D01*
X119673323Y-120914999D01*
X119636001Y-120911323D01*
X119598679Y-120914999D01*
X118401322Y-120914999D01*
X118363999Y-120911323D01*
X118326676Y-120914999D01*
X118326666Y-120914999D01*
X118215013Y-120925996D01*
X118071752Y-120969453D01*
X117939722Y-121040025D01*
X117877627Y-121090986D01*
X117823998Y-121134998D01*
X117800200Y-121163996D01*
X116489003Y-122475194D01*
X116459999Y-122498997D01*
X116404871Y-122566172D01*
X116365026Y-122614722D01*
X116346711Y-122648987D01*
X116294454Y-122746752D01*
X116250997Y-122890013D01*
X116240000Y-123001666D01*
X116240000Y-123001676D01*
X116236324Y-123038998D01*
X116240000Y-123076320D01*
X116240001Y-133561928D01*
X116200000Y-133561928D01*
X116075518Y-133574188D01*
X115955820Y-133610498D01*
X115845506Y-133669463D01*
X115748815Y-133748815D01*
X115669463Y-133845506D01*
X115610498Y-133955820D01*
X115574188Y-134075518D01*
X115561928Y-134200000D01*
X115561928Y-135800000D01*
X115574188Y-135924482D01*
X115610498Y-136044180D01*
X115669463Y-136154494D01*
X115719118Y-136214999D01*
X114448373Y-136214999D01*
X114495226Y-136101887D01*
X114535000Y-135901928D01*
X114535000Y-135698050D01*
X114495226Y-135498091D01*
X114417205Y-135309733D01*
X114303937Y-135140215D01*
X114260000Y-135096278D01*
X114260000Y-132998711D01*
X114303937Y-132954774D01*
X114417205Y-132785256D01*
X114495226Y-132596898D01*
X114535000Y-132396939D01*
X114535000Y-132193061D01*
X114495226Y-131993102D01*
X114417205Y-131804744D01*
X114303937Y-131635226D01*
X114159774Y-131491063D01*
X113990256Y-131377795D01*
X113801898Y-131299774D01*
X113601939Y-131260000D01*
X113398061Y-131260000D01*
X113198102Y-131299774D01*
X113009744Y-131377795D01*
X112840226Y-131491063D01*
X112696063Y-131635226D01*
X112582795Y-131804744D01*
X112504774Y-131993102D01*
X112465000Y-132193061D01*
X112465000Y-132396939D01*
X112504774Y-132596898D01*
X112582795Y-132785256D01*
X112696063Y-132954774D01*
X112740000Y-132998711D01*
X112740001Y-135096277D01*
X112696063Y-135140215D01*
X112582795Y-135309733D01*
X112504774Y-135498091D01*
X112465000Y-135698050D01*
X112465000Y-135901928D01*
X112504774Y-136101887D01*
X112551627Y-136214999D01*
X99277025Y-136214999D01*
X99332182Y-136111808D01*
X99414236Y-135841309D01*
X99441943Y-135560000D01*
X99414236Y-135278691D01*
X99332182Y-135008192D01*
X99198932Y-134758899D01*
X99019608Y-134540392D01*
X98801101Y-134361068D01*
X98668142Y-134290000D01*
X98801101Y-134218932D01*
X99019608Y-134039608D01*
X99198932Y-133821101D01*
X99332182Y-133571808D01*
X99414236Y-133301309D01*
X99441943Y-133020000D01*
X99414236Y-132738691D01*
X99332182Y-132468192D01*
X99198932Y-132218899D01*
X99019608Y-132000392D01*
X98801101Y-131821068D01*
X98668142Y-131750000D01*
X98801101Y-131678932D01*
X99019608Y-131499608D01*
X99198932Y-131281101D01*
X99332182Y-131031808D01*
X99414236Y-130761309D01*
X99441943Y-130480000D01*
X99414236Y-130198691D01*
X99332182Y-129928192D01*
X99198932Y-129678899D01*
X99019608Y-129460392D01*
X98801101Y-129281068D01*
X98668142Y-129210000D01*
X98801101Y-129138932D01*
X99019608Y-128959608D01*
X99198932Y-128741101D01*
X99332182Y-128491808D01*
X99414236Y-128221309D01*
X99441943Y-127940000D01*
X99414236Y-127658691D01*
X99332182Y-127388192D01*
X99198932Y-127138899D01*
X99019608Y-126920392D01*
X98801101Y-126741068D01*
X98551808Y-126607818D01*
X98281309Y-126525764D01*
X98070492Y-126505000D01*
X97929508Y-126505000D01*
X97718691Y-126525764D01*
X97448192Y-126607818D01*
X97198899Y-126741068D01*
X96980392Y-126920392D01*
X96801068Y-127138899D01*
X96667818Y-127388192D01*
X96585764Y-127658691D01*
X96558057Y-127940000D01*
X96585764Y-128221309D01*
X96599292Y-128265906D01*
X96270200Y-128594999D01*
X84037025Y-128594999D01*
X84092182Y-128491808D01*
X84174236Y-128221309D01*
X84201943Y-127940000D01*
X84174236Y-127658691D01*
X84092182Y-127388192D01*
X83958932Y-127138899D01*
X83779608Y-126920392D01*
X83561101Y-126741068D01*
X83311808Y-126607818D01*
X83041309Y-126525764D01*
X82830492Y-126505000D01*
X82689508Y-126505000D01*
X82478691Y-126525764D01*
X82208192Y-126607818D01*
X81958899Y-126741068D01*
X81740392Y-126920392D01*
X81561068Y-127138899D01*
X81427818Y-127388192D01*
X81345764Y-127658691D01*
X81318057Y-127940000D01*
X81345764Y-128221309D01*
X81427818Y-128491808D01*
X81561068Y-128741101D01*
X81650330Y-128849867D01*
X80660000Y-129840197D01*
X80660000Y-125340000D01*
X105003461Y-125340000D01*
X105049510Y-125807542D01*
X105185887Y-126257116D01*
X105407351Y-126671446D01*
X105705391Y-127034609D01*
X106068554Y-127332649D01*
X106482884Y-127554113D01*
X106932458Y-127690490D01*
X107282843Y-127725000D01*
X107517157Y-127725000D01*
X107867542Y-127690490D01*
X108317116Y-127554113D01*
X108731446Y-127332649D01*
X109094609Y-127034609D01*
X109392649Y-126671446D01*
X109614113Y-126257116D01*
X109750490Y-125807542D01*
X109796539Y-125340000D01*
X109750490Y-124872458D01*
X109614113Y-124422884D01*
X109392649Y-124008554D01*
X109094609Y-123645391D01*
X108731446Y-123347351D01*
X108317116Y-123125887D01*
X107867542Y-122989510D01*
X107517157Y-122955000D01*
X107282843Y-122955000D01*
X106932458Y-122989510D01*
X106482884Y-123125887D01*
X106068554Y-123347351D01*
X105705391Y-123645391D01*
X105407351Y-124008554D01*
X105185887Y-124422884D01*
X105049510Y-124872458D01*
X105003461Y-125340000D01*
X80660000Y-125340000D01*
X80660000Y-120660000D01*
X131846897Y-120660000D01*
X131790725Y-120690025D01*
X131790725Y-120690025D01*
G37*
X131790725Y-120690025D02*
X131675000Y-120784998D01*
X131651202Y-120813996D01*
X131405995Y-121059203D01*
X131331111Y-121036487D01*
X131112950Y-121015000D01*
X130967050Y-121015000D01*
X130748889Y-121036487D01*
X130468966Y-121121401D01*
X130210986Y-121259294D01*
X129984866Y-121444866D01*
X129960393Y-121474687D01*
X129939502Y-121405820D01*
X129880537Y-121295506D01*
X129801185Y-121198815D01*
X129704494Y-121119463D01*
X129594180Y-121060498D01*
X129474482Y-121024188D01*
X129350000Y-121011928D01*
X127650000Y-121011928D01*
X127525518Y-121024188D01*
X127405820Y-121060498D01*
X127295506Y-121119463D01*
X127198815Y-121198815D01*
X127119463Y-121295506D01*
X127060498Y-121405820D01*
X127024188Y-121525518D01*
X127011928Y-121650000D01*
X127011928Y-122915001D01*
X121950805Y-122915001D01*
X120199805Y-121164002D01*
X120176002Y-121134998D01*
X120060277Y-121040025D01*
X119928248Y-120969453D01*
X119784987Y-120925996D01*
X119673334Y-120914999D01*
X119673323Y-120914999D01*
X119636001Y-120911323D01*
X119598679Y-120914999D01*
X118401322Y-120914999D01*
X118363999Y-120911323D01*
X118326676Y-120914999D01*
X118326666Y-120914999D01*
X118215013Y-120925996D01*
X118071752Y-120969453D01*
X117939722Y-121040025D01*
X117877627Y-121090986D01*
X117823998Y-121134998D01*
X117800200Y-121163996D01*
X116489003Y-122475194D01*
X116459999Y-122498997D01*
X116404871Y-122566172D01*
X116365026Y-122614722D01*
X116346711Y-122648987D01*
X116294454Y-122746752D01*
X116250997Y-122890013D01*
X116240000Y-123001666D01*
X116240000Y-123001676D01*
X116236324Y-123038998D01*
X116240000Y-123076320D01*
X116240001Y-133561928D01*
X116200000Y-133561928D01*
X116075518Y-133574188D01*
X115955820Y-133610498D01*
X115845506Y-133669463D01*
X115748815Y-133748815D01*
X115669463Y-133845506D01*
X115610498Y-133955820D01*
X115574188Y-134075518D01*
X115561928Y-134200000D01*
X115561928Y-135800000D01*
X115574188Y-135924482D01*
X115610498Y-136044180D01*
X115669463Y-136154494D01*
X115719118Y-136214999D01*
X114448373Y-136214999D01*
X114495226Y-136101887D01*
X114535000Y-135901928D01*
X114535000Y-135698050D01*
X114495226Y-135498091D01*
X114417205Y-135309733D01*
X114303937Y-135140215D01*
X114260000Y-135096278D01*
X114260000Y-132998711D01*
X114303937Y-132954774D01*
X114417205Y-132785256D01*
X114495226Y-132596898D01*
X114535000Y-132396939D01*
X114535000Y-132193061D01*
X114495226Y-131993102D01*
X114417205Y-131804744D01*
X114303937Y-131635226D01*
X114159774Y-131491063D01*
X113990256Y-131377795D01*
X113801898Y-131299774D01*
X113601939Y-131260000D01*
X113398061Y-131260000D01*
X113198102Y-131299774D01*
X113009744Y-131377795D01*
X112840226Y-131491063D01*
X112696063Y-131635226D01*
X112582795Y-131804744D01*
X112504774Y-131993102D01*
X112465000Y-132193061D01*
X112465000Y-132396939D01*
X112504774Y-132596898D01*
X112582795Y-132785256D01*
X112696063Y-132954774D01*
X112740000Y-132998711D01*
X112740001Y-135096277D01*
X112696063Y-135140215D01*
X112582795Y-135309733D01*
X112504774Y-135498091D01*
X112465000Y-135698050D01*
X112465000Y-135901928D01*
X112504774Y-136101887D01*
X112551627Y-136214999D01*
X99277025Y-136214999D01*
X99332182Y-136111808D01*
X99414236Y-135841309D01*
X99441943Y-135560000D01*
X99414236Y-135278691D01*
X99332182Y-135008192D01*
X99198932Y-134758899D01*
X99019608Y-134540392D01*
X98801101Y-134361068D01*
X98668142Y-134290000D01*
X98801101Y-134218932D01*
X99019608Y-134039608D01*
X99198932Y-133821101D01*
X99332182Y-133571808D01*
X99414236Y-133301309D01*
X99441943Y-133020000D01*
X99414236Y-132738691D01*
X99332182Y-132468192D01*
X99198932Y-132218899D01*
X99019608Y-132000392D01*
X98801101Y-131821068D01*
X98668142Y-131750000D01*
X98801101Y-131678932D01*
X99019608Y-131499608D01*
X99198932Y-131281101D01*
X99332182Y-131031808D01*
X99414236Y-130761309D01*
X99441943Y-130480000D01*
X99414236Y-130198691D01*
X99332182Y-129928192D01*
X99198932Y-129678899D01*
X99019608Y-129460392D01*
X98801101Y-129281068D01*
X98668142Y-129210000D01*
X98801101Y-129138932D01*
X99019608Y-128959608D01*
X99198932Y-128741101D01*
X99332182Y-128491808D01*
X99414236Y-128221309D01*
X99441943Y-127940000D01*
X99414236Y-127658691D01*
X99332182Y-127388192D01*
X99198932Y-127138899D01*
X99019608Y-126920392D01*
X98801101Y-126741068D01*
X98551808Y-126607818D01*
X98281309Y-126525764D01*
X98070492Y-126505000D01*
X97929508Y-126505000D01*
X97718691Y-126525764D01*
X97448192Y-126607818D01*
X97198899Y-126741068D01*
X96980392Y-126920392D01*
X96801068Y-127138899D01*
X96667818Y-127388192D01*
X96585764Y-127658691D01*
X96558057Y-127940000D01*
X96585764Y-128221309D01*
X96599292Y-128265906D01*
X96270200Y-128594999D01*
X84037025Y-128594999D01*
X84092182Y-128491808D01*
X84174236Y-128221309D01*
X84201943Y-127940000D01*
X84174236Y-127658691D01*
X84092182Y-127388192D01*
X83958932Y-127138899D01*
X83779608Y-126920392D01*
X83561101Y-126741068D01*
X83311808Y-126607818D01*
X83041309Y-126525764D01*
X82830492Y-126505000D01*
X82689508Y-126505000D01*
X82478691Y-126525764D01*
X82208192Y-126607818D01*
X81958899Y-126741068D01*
X81740392Y-126920392D01*
X81561068Y-127138899D01*
X81427818Y-127388192D01*
X81345764Y-127658691D01*
X81318057Y-127940000D01*
X81345764Y-128221309D01*
X81427818Y-128491808D01*
X81561068Y-128741101D01*
X81650330Y-128849867D01*
X80660000Y-129840197D01*
X80660000Y-125340000D01*
X105003461Y-125340000D01*
X105049510Y-125807542D01*
X105185887Y-126257116D01*
X105407351Y-126671446D01*
X105705391Y-127034609D01*
X106068554Y-127332649D01*
X106482884Y-127554113D01*
X106932458Y-127690490D01*
X107282843Y-127725000D01*
X107517157Y-127725000D01*
X107867542Y-127690490D01*
X108317116Y-127554113D01*
X108731446Y-127332649D01*
X109094609Y-127034609D01*
X109392649Y-126671446D01*
X109614113Y-126257116D01*
X109750490Y-125807542D01*
X109796539Y-125340000D01*
X109750490Y-124872458D01*
X109614113Y-124422884D01*
X109392649Y-124008554D01*
X109094609Y-123645391D01*
X108731446Y-123347351D01*
X108317116Y-123125887D01*
X107867542Y-122989510D01*
X107517157Y-122955000D01*
X107282843Y-122955000D01*
X106932458Y-122989510D01*
X106482884Y-123125887D01*
X106068554Y-123347351D01*
X105705391Y-123645391D01*
X105407351Y-124008554D01*
X105185887Y-124422884D01*
X105049510Y-124872458D01*
X105003461Y-125340000D01*
X80660000Y-125340000D01*
X80660000Y-120660000D01*
X131846897Y-120660000D01*
X131790725Y-120690025D01*
G36*
X81958899Y-134218932D02*
G01*
X82091858Y-134290000D01*
X81958899Y-134361068D01*
X81944989Y-134372484D01*
X81944989Y-134207516D01*
X81958899Y-134218932D01*
X81958899Y-134218932D01*
G37*
X81958899Y-134218932D02*
X82091858Y-134290000D01*
X81958899Y-134361068D01*
X81944989Y-134372484D01*
X81944989Y-134207516D01*
X81958899Y-134218932D01*
M02*
